/* XPM */
static char *d3d37b6d811d432fc2ceeb7c26f25df623nKG8fxCP1sMP6d[] = {
/* columns rows colors chars-per-pixel */
"64 62 240 2 ",
"   c #3F2D1D",
".  c #3C2D22",
"X  c #3D342A",
"o  c #2F3F2A",
"O  c #49321D",
"+  c #412D1D",
"@  c #433224",
"#  c #45392C",
"$  c #4C3C2C",
"%  c #453628",
"&  c #543C29",
"*  c #4C3F32",
"=  c #4C382E",
"-  c #35401F",
";  c #36492A",
":  c #3B542D",
">  c #3A4533",
",  c #507019",
"<  c #56412D",
"1  c #5B432D",
"2  c #514B2D",
"3  c #495829",
"4  c #4C4436",
"5  c #544434",
"6  c #5B4634",
"7  c #5C4A35",
"8  c #554639",
"9  c #564B3C",
"0  c #5C4C3B",
"q  c #564938",
"w  c #485737",
"e  c #545B35",
"r  c #5D503D",
"t  c #575739",
"y  c #4E5528",
"u  c #624B35",
"i  c #6C4E35",
"p  c #634D3A",
"a  c #684C38",
"s  c #63513D",
"d  c #6B533C",
"f  c #69593A",
"g  c #73553B",
"h  c #7B5A3C",
"j  c #775738",
"k  c #65482F",
"l  c #59652D",
"z  c #597327",
"x  c #586537",
"c  c #496629",
"v  c #697929",
"b  c #656637",
"n  c #6A7636",
"m  c #757739",
"M  c #747034",
"N  c #594D43",
"B  c #5C554B",
"V  c #585646",
"C  c #5D5B52",
"Z  c #5C5751",
"A  c #4F574F",
"S  c #634D44",
"D  c #635342",
"F  c #6B5642",
"G  c #6D5A44",
"H  c #635A4C",
"J  c #6B5D4B",
"K  c #655946",
"L  c #735B44",
"P  c #765C47",
"I  c #635D53",
"U  c #685C54",
"Y  c #735B55",
"T  c #5C6259",
"R  c #5C6257",
"E  c #596149",
"W  c #6E624D",
"Q  c #646844",
"!  c #74634E",
"~  c #7B634B",
"^  c #796746",
"/  c #6A7547",
"(  c #7A7547",
")  c #656154",
"_  c #6C6354",
"`  c #65635A",
"'  c #6C655B",
"]  c #64685D",
"[  c #6D6A5E",
"{  c #676854",
"}  c #736554",
"|  c #7B6652",
" . c #766955",
".. c #7B6A55",
"X. c #71665B",
"o. c #736A5B",
"O. c #7C6E5B",
"+. c #7C715C",
"@. c #737352",
"#. c #6D6C62",
"$. c #676C62",
"%. c #736D63",
"&. c #766B66",
"*. c #6D7164",
"=. c #6C766B",
"-. c #6E796E",
";. c #677266",
":. c #747265",
">. c #7B7264",
",. c #76756A",
"<. c #7C746C",
"1. c #747A6D",
"2. c #7C7A6C",
"3. c #777967",
"4. c #6F7A72",
"5. c #7E7670",
"6. c #737D72",
"7. c #7D7B72",
"8. c #835C3B",
"9. c #87663C",
"0. c #956F3E",
"q. c #856747",
"w. c #85764D",
"e. c #977242",
"r. c #826C58",
"t. c #83755C",
"y. c #897956",
"u. c #937756",
"i. c #926E46",
"p. c #A37B48",
"a. c #81766F",
"s. c #827A6D",
"d. c #867965",
"f. c #837A73",
"g. c #847E78",
"h. c #857B74",
"j. c #957F66",
"k. c #55861A",
"l. c #618E1E",
"z. c #598123",
"x. c #668726",
"c. c #6F8C31",
"v. c #7B8756",
"b. c #7E9459",
"n. c #788E4F",
"m. c #7B8376",
"M. c #7C867A",
"N. c #7E897B",
"B. c #778276",
"V. c #76826B",
"C. c #B5873F",
"Z. c #978657",
"A. c #83945A",
"S. c #868950",
"D. c #AE8850",
"F. c #8EA354",
"G. c #89856A",
"H. c #948867",
"J. c #88946C",
"K. c #9E956F",
"L. c #8A8276",
"P. c #848479",
"I. c #8C847B",
"U. c #848B7D",
"Y. c #888878",
"T. c #928879",
"R. c #879679",
"E. c #9C9474",
"W. c #9B9578",
"Q. c #A79875",
"!. c #A69264",
"~. c #91A475",
"^. c #B5A87A",
"/. c #B8AB72",
"(. c #C29346",
"). c #848E80",
"_. c #8A8C81",
"`. c #938B82",
"'. c #988F87",
"]. c #869283",
"[. c #8A9484",
"{. c #8E9C8B",
"}. c #8B9886",
"|. c #9D948B",
" X c #919E8D",
".X c #989986",
"XX c #8E9F91",
"oX c #939E92",
"OX c #999592",
"+X c #A39A8D",
"@X c #A49D86",
"#X c #A59D94",
"$X c #93A18F",
"%X c #96A284",
"&X c #95A391",
"*X c #98A694",
"=X c #9CA997",
"-X c #B5AD86",
";X c #BAB589",
":X c #ACA195",
">X c #ADA59A",
",X c #A4A497",
"<X c #B1A79C",
"1X c #ABAF91",
"2X c #B5ADA2",
"3X c #A5B3A0",
"4X c #BDB4AA",
"5X c #BBB2A8",
"6X c #C2BC87",
"7X c #C1BA95",
"8X c #C2B9AD",
"9X c #C0BAA8",
"0X c #C6BDB1",
"qX c #C9BFB3",
"wX c #D5CF8E",
"eX c #D2CA97",
"rX c #DAD496",
"tX c #CBC790",
"yX c #E1DB9A",
"uX c #E9E49E",
"iX c #CBC2B5",
"pX c #CCC4B7",
"aX c #D4CBBD",
"sX c #D4D6AE",
"dX c #E2DAA2",
"fX c #ECE8A6",
"gX c #F1EDAC",
"hX c #F6F1AD",
"jX c #F6F1A5",
"kX c #F4EFB1",
"lX c #F8F4B5",
"zX c #E3E7B8",
"xX c #D9CFC3",
"cX c #D6CCC0",
"vX c #DBD2C4",
"bX c #DFD5C9",
"nX c #E0D7CA",
"mX c #E3D9CC",
"MX c #E7DED1",
"NX c #EAE0D4",
/* pixels */
" X X X X X X X X X X X X X X X X X X X X X X X X X X X X X X X X X X X X X X X X X X&XN.V R A *.&X X X X X X X X X X X X X X X X",
" X X X X X X X X X X X X X X X X X X X X X X X X X X X X X X X X X X X X X X X$X&X$X[.C [.&X{.R 1.&X X X X X X X X X X X X X X X",
" X X X X X X X X X X X X X X X X X X X X X X X X X X X X X X X X X X X X X X$X[.U.=X=.1.=X{.$X&XR {. X X X X X X X X X X X X X X",
" X X X X X X X X X X X X X X X X X X X X X X X X X X X X X X X X X X X X X X&Xm.#.3X1.1.&X X{.&X=.N.&X X X X X X X X X X X X X X",
" X X X X X X X X X X X X X X X X X X X X X X X X X X X X X X X X X X X X X X X{.=.U.T U.&X X X*X-.1.*X X X X X X X X X X X X X X",
" X X X X X X X X X X X X X X X X X X X X X X X X X X X X X X X X X X X X X X X&X[.R N.$X X X X&X6.=.*X X X X X X X X X X X X X X",
" X X X X X X X X X X X X X X X X X X X X X X X X X X X X X X X X X X X X X X X&X].[ &X{. X X X&XN.=.&X X X X X X X X X X X X X X",
" X X X X X X X X X X X X X X X X X X X X X X X X X X X X X X X X X X X X X X X X:.X U.*X X X X&XM.$.*X X X X X X X X X X X X X X",
" X X X X X X X X X X X X X X X X X X X X X X X X X X X X X X X X X X X X X$X X[ N N * :.$X X X&XN.] *X X X X X X X X X X X X X X",
" X X X X X X X X X X X X X X X X X X X X X X X X X X X X X X X X X X X X X{.3X1X%XG.@.)  X X X&X).;.&X X X X X X X X X X X X X X",
" X X X X X X X X X X X X X X X X X X X X X X X X X X X X X X X X X X X X X{.,XsX1XtXG..X X X X$X].;.&X X X X X X X X X X X X X X",
" X X X X X X X X X X X X X X X X X X X X X X X X X X X X X X X X X X X X X{.3XsXzX@X;X[.$X X X$X].T &X X X X X X X X X X X X X X",
" X X X X X X X X X X X X X X X X X X X X X X X X X X X X X X X X X X X X X{.=X9XsX1X;X{. X X X$X[.R &X{. X X X X X X X X X X X X",
" X X X X X X X X X X X X X X X X X X X X X X X X X X$X XXXXX{. X X{.{. X X X X2.* B U. X X X X$X}.R $X X X X X X X X X X X X X X",
" X X X X X X X X X X X X X X X X X X X X X X X$X&X X}..XQ.W..X X X.X@X{. X X X*X] m.*X X X X X X{.T  X X X X X X X X X X X X X X",
" X X X X X X X X X X X X X X X X X X X X X&X&X[.s.O.r.u.D.D.H.d.H.9.p.@X&X X X X&X&X X X X X X X{.$. X X X X X X X X X X X X X X",
" X X X X X X X X X X X X X X X X X X X$X$XU.>...J H } u.D.u._ J H  .| y.J. X{. X X X X X X X X X X] {. X X X X X X X X X X X X X",
" X X X X X X X X X X X X X X X X X X&X].>.K G G N 9 0 L h g L f ^ I ` U _ H..X&X X X X X X X X X X$.{. X X X X X X X X X X X X X",
" X X X X X X X X X X X X X X X X X&XY...J K F L K 0 p d d 7 0 2 M b z x.@.b M J.&X X X X X X X X$X=.{.$X X X X X X X X X X X X X",
" X X X X X X X X X X X X X X X X&Xs.P ~ q.9.s d a 6 $ @   @ @ @ $ 4 , , m x Q ( F. X X X X X X X X-.{. X X X X X X X X X X X X X",
" X X X X X X X X X X&X X X X X&XP.~ ^ D.D.i.s & @ O O & 1 k 1 + + . @ * K l w / c.|. X X X X X X$X4.{. X X X X X X X X X X X X X",
" X X X X X X X X X XU.{. X X&XU.V G e.p.9.g @   @ 1 d 0 $ 0 F u < @ . @ 4 b z l W Y.@X{. X X X X$X4.}.$X X X X X X X X X X X X X",
" X X X X X X X X$X[.:.U.$X X{.E w L 0.0.d ` & 1 5 # # $ 5 * $ 0 5 % < $ . 2 k.y f Q W..X{. X X X$X4.[.$X X X X X X X X X X X X X",
" X X X X X X X X$X[.f.P.{.&X3.: e q.L u o.Y.d 6 $ 4 J t.>.y.! * # # 5 6 1 % y l v x / @X X X X X&X-.[.$X X X X X X X X X X X X X",
" X X X X X X X X$X_.a.f.). XV c t P d 0 h.f.G u D  ./.rXd.tXuX!.0 % # 7 g i = q x c.x d. X{. X X&X;.].&X X X X X X X X X X X X X",
" X X X X X X X X$XU.a.a.U.7.t c b P < _ L.h.W d [ ^.jXfXG.eXkXhX^.q # s F h k < N t n / ~.oX X X&X;.U.&X X X X X X X X X X X X X",
" X X X X X X X X$X].f.f.U.) b b G d & _ f.%.D K Q.lXlXgXH.eXlXfXkXH.$ s G P j a 0 N D c.F.oX X X&X;.U.&X X X X X X X X X X X X X",
" X X X X X X X X X X7.2.P.H @.<.<.' i } ,.} D o.;XdXyXfXW.tXlXgXhX-X5 D L G h j r t H f S.oX X X&X-.N.&X X X X X X X X X X X X X",
" X X X X X X X X X$Xm.f.f.f.h.h.g.h.f.f.f.>.W >.d.d.G.d.7.T.T.W.E.G.N s J G q.j 7 x V Y m .XoX X&X-.N.&X X X X X X X X X X X X X",
" X X X X X X X X$XU.<.,.f.f.f.f.f.h.h.h.<.2.} d.wXyXyXwXT.K.6X6X6XE.N D o.J 8.h 6 r b Y m J.oX{.&X=.N.&X X X X X X X X X X X X X",
" X X X X X X X X}.2.g.#Xa.f.f.g.L.f.f.h.>XI.%.>.dXhXgXhXW.;XlXfXjXK.8 J s.+.8.8.p q m w.M b.oX{.&X=.N.&X X X X X X X X X X X X X",
" X X X X X$X&X&XP.<.4XOXOX<.<.B N <.a.|.OX5X<. .^.hXkXfXE.7XlXhXrX .0 } :.O.h j u q x.l.( A.&X{.*X=.m.&X X X X X X X X X X X X X",
" X X X X X].].].5.a.2XOX`.a.a.' ' f.f.`.#X,X<._ J -XfXjXE.eXlXuXK.F s  .:...8.h u g b n ! v.&X{.&X-.N.&X X X X X X X X X X X X X",
" X X X X{.N.B.] B ,.f.I.5.a.f.f.f.f.f.f.g.5.Z C N J W.6XG.-XrXQ.! L P } t.r.8.h a 9.q.f n A.oX{.&X6.N.&X X X X X X X X X X X X X",
" X X X X{.N.-.C I f.f.a.f.a.<.<.<.<.f.f.5.g.%.Z K 0 8 D  .J G 7 u ~ D 8 p F d g u 9.C.h y b.oX{.&X6.N.&X X X X X X X X X X X X X",
" X X X X{.U.M.,.f.f.f.f.<.<.<.<.<.<.<.5.f.h.f.5.%.L G 6 6 6 u u P ~ | r.| q.P q.d h C.i.x c.%X{.&Xm.N.&X X X X X X X X X X X X X",
" X X X X X$XP.f.f.f.<.<.I.+X2X<XiX8X#X'.f.<.f.g.P.G u f f f ^ ^ d 6 d s P u u < 7 e.(.^ n x.~.oX&Xm.N.&X X X X X X X X X X X X X",
" X X X X$X_.a.f.f.,.|.0XbXNXmXmXmXnXmXmXpX+X<.f.h.h.!.!.Z.Z.Z./.u.d P F ~ d i 1 s ^ e.M n @.$X X&Xm.N.&X X X X X X X X X X X X X",
" X X X X}.f.h.f.<.2XMXmXiX>XvXvXvXvXpX8XmXMX0Xf.f.f.t.y.w.w.( Z.Z.p D G G G d 1 u r i.( n G. X X&XB.N.&X X X X X X X X X X X X X",
" X X X&XU.a.h.<.2X2X8XcX+X#X4XmXvXbX2X|.8XiX:X>X<.h.s.w.Z.w.w.Z.y.6 s ! F r 7 k i S ( l.x.v.oX X&Xm.M.&X X X X X X X X X X X X X",
" X X X{.h.h.<.+X8X:X>XaXbXMXvXvXvXvXnXnXxXqX:X4X|.>.f. .^ ^ w.^ d s F  .L u 6 i g s Q z l.n.oX X&XN.N.&X X X X X X X X X X X X X",
" X X$X_.a.5.f.aXbXmXmXmXmXvXmXbXbXbXvXnXmXmXmXMXpX,.,.>.6 s u u p s G t.! f u i g f x w e A.oX{.&Xm.m.&X X X X X X X X X X X X X",
" X X XP.f.%.>XmXiXbXvX>X0XmXpXT.`.aXbX:XT.cXaX>XbX'.#.h.| ~ ~ q.! G W +.G s 7 g g 7 K x e v.&X{.&X6.6.&X X X X X X X X X X X X X",
" X$X].f.<.<.pX>XT.0X5XI.|.vX4XiX5X0XxX5X2X8X8XI.4X8X' f.>.~ | y.~ G  .+.6 u 6 h i y b n H y.%X{.*X6.6.&X X X X X X X X X X X X X",
" X{.h.f.>.'.cX0XnXaXxXmXvXvXnXmXmXnXbXmXmXbXbXmXaXcX<.<.5.| ..T.W r +.d.5 f 7 g i q z.z K S. X{.&X1.6.&X X X X X X X X X X X X X",
" X{.5.f.%.2XmXbXvXbXvXvXvXvXvXvXvXvXvXvXvXvXvXvXnXvXI.,.g.O.| d.W 0 d.! s 7 7 h g 4 l e e c.%X{.*X6.6.&X X X X X X X X X X X X X",
" X{.f.,.%.0XbXvXvXvXvXvXvXvXvXvXvXvXvXvXvXbXvXbXvXnX|.#.g.d...+.J s t.D u p p q.d 4 l t l v Q. X&X6.m.&X X X X X X X X X X X X X",
" X{.%.U <.aXvXvXvXvXvXvXvXvXvXvXvXvXvXvXvXvXvXvXvXmX#X` #.} } 3.! O.H.g h q.P 8.6 $ l w v e.D.-X&X6.N.&X X X X X X X X X X X X X",
" X&X1.C `.vXvXvXvXvXvXvXvXvXvXvXvXvXvXvXvXvXvXvXvXmX>X' B 6 ~ t.q.r.u.h 8.k i 8.< c z w v q.u.$X&XM.).&X X X X X X X X X X X X X",
" X X&X).T.bXvXvXvXvXvXxXvXvXvXvXvXvXvXvXvXvXvXvXvXmX<X#.7 $ a L d p p a g 1 6 i = , x.t x J .X{.$XN.).&X X X X X X X X X X X X X",
" X X$XP.T.bXvXvXvXvXvXvXvXvXvXvXvXvXvXvXvXvXvXvXvXmX<X:.} K } } ..| ~ ~ ~ F s F * * m k.t X.}. X&XB.).&X X X X X X X X X X X X X",
" X X$X7.`.bXvXvXvXvXvXvXvXvXvXvXvXvXvXvXvXvXvXvXvXmX:X%.K D | .. .J F ~ P p d d u 5 S z v &. X X&XM.[.$X X X X X X X X X X X X X",
" X X$X7.`.bXvXvXvXvXvXvXvXvXvXvXbXvXvXvXvXvXvXvXvXmX+X:.9 9 ! K H ) J G s 6 6 & 0 5 p N z  .{. X$XN.[.$X X X X X X X X X X X X X",
" X X$Xm.f.aXvXvXvXvXvXvXvXvXvXvXvXvXvXvXvXvXvXvXvXvXI.<.H B o.J >.*.+.s F L i $ 5 p d 8 t x.R.oX$XM.].$X X X X X X X X X X X X X",
" X X$XP.%.4XnXxXvXvXvXvXvXvXvXvXvXvXvXvXvXvXbXvXbX0X<.' G F } K  .#._ 5 G G s 5 5 0 N N 9 z.R.oX&XB.].$X X X X X X X X X X X X X",
" X X$XU.&.L.xXvXvXvXvXvXvXvXvXvXvXvXvXvXvXvXvXvXmX'.<.B q 0 0 * 0 8 9 $ 6 * * . . 4 w 4 S Q {.{.&X6.].&X X X X X X X X X X X X X",
" X X$X[.,.%.+XnXxXvXvXxXvXvXvXvXvXvXvXvXvXvXxXmX4X<.a.%.o.>.o.' %._ _ ' U I B I V ; : w 9 e J.&X$X6.[.$X X X X X X X X X X X X X",
" X X X$X7.&.%.<XmXxXxXxXvXvXvXvXvXvXvXvXvXxXmXqX<.<.' H H X._ ` [ ' ` H ' I H ' w ; : w : 3 R.&X&X-.].$X X X X X X X X X X X X X",
" X X X$X{.%.%.%.+XvXnXvXvXvXvXbXvXvXvXvXbXmX8X<.%.%.` I I [ [ ) %.%.' _ ' I V V > o ; ; ; : }. X&X6.[.$X X X X X X X X X X X X X",
" X X X X&X[.' %.' g.8XaXbXmXnXiXpXmXmXnXaX:X' X.%.#.:.:.' :.1.:.,.:.7.7.#.1.%.[ ,.] C #.#.3 V.&X$XM.[.$X X X X X X X X X X X X X",
" X X X X X$X[.#.U ` ` <.`.+X:X+X:X<X+Xg.X.I ` ` [ #.` [ C ' ` ) ] _ ' U C B ' [ [ ' #.2.{ - V.&X$X).}.$X X X X X X X X X X X X X",
" X X X X X X&XN.` I #.1.:.%.#.[ [ [ ` ` ` ` ` $.7.7.*.1.#.1.:.[ 1.[ [ ,.[ [ ,.:.*.:.[ 2.2.V U.&X X{. X X X X X X X X X X X X X X"
};
