/* XPM */
static char *_37c0296953c4c75a006e1b28e9b17ccTsr7S8LvHLHeAVs7[] = {
/* columns rows colors chars-per-pixel */
"64 64 215 2 ",
"   c #1E1D14",
".  c #241714",
"X  c #231914",
"o  c #2B1B16",
"O  c #261C19",
"+  c #311B11",
"@  c #1D2417",
"#  c #1E2519",
"$  c #1D2C1B",
"%  c #1B341D",
"&  c #153A1E",
"*  c #292518",
"=  c #362816",
"-  c #27351C",
";  c #2D311A",
":  c #39351B",
">  c #173C21",
",  c #2B2723",
"<  c #302A25",
"1  c #3C3832",
"2  c #431E10",
"3  c #4A270C",
"4  c #572B0B",
"5  c #56300D",
"6  c #59300C",
"7  c #462914",
"8  c #59371B",
"9  c #632604",
"0  c #69390B",
"q  c #743907",
"w  c #743E07",
"e  c #6C3B11",
"r  c #493C2C",
"t  c #16411F",
"y  c #3D551F",
"u  c #0D4B22",
"i  c #134422",
"p  c #144B25",
"a  c #194826",
"s  c #085627",
"d  c #075A27",
"f  c #065B27",
"g  c #0E5D29",
"h  c #155529",
"j  c #284327",
"k  c #2D5321",
"l  c #375323",
"z  c #394938",
"x  c #02662A",
"c  c #0B632C",
"v  c #026B2C",
"b  c #0B6B2E",
"n  c #17652A",
"m  c #0B762E",
"M  c #037631",
"N  c #097231",
"B  c #037C33",
"V  c #087932",
"C  c #147030",
"Z  c #266229",
"A  c #397F2C",
"S  c #46431E",
"D  c #4D4A1D",
"F  c #40561F",
"G  c #425C1F",
"H  c #56551F",
"J  c #784108",
"K  c #7C450C",
"L  c #7D4716",
"P  c #4B6E1F",
"I  c #524C2B",
"U  c #435A20",
"Y  c #475825",
"T  c #575723",
"R  c #46423C",
"E  c #6D5127",
"W  c #486A23",
"Q  c #5A6725",
"!  c #4C7223",
"~  c #517B25",
"^  c #526836",
"/  c #616223",
"(  c #6C742D",
")  c #3E5540",
"_  c #484740",
"`  c #4C4B43",
"'  c #4C5145",
"]  c #595B46",
"[  c #53534B",
"{  c #545D50",
"}  c #5B5B52",
"|  c #6D5B42",
" . c #5D6353",
".. c #6E6745",
"X. c #61655A",
"o. c #666A5F",
"O. c #686D62",
"+. c #6C7165",
"@. c #6E7468",
"#. c #71776A",
"$. c #747B6E",
"%. c #777E71",
"&. c #874506",
"*. c #8A4903",
"=. c #924E06",
"-. c #965006",
";. c #9C5506",
":. c #98530B",
">. c #874A13",
",. c #975311",
"<. c #A15709",
"1. c #A35809",
"2. c #AC5E0B",
"3. c #AA5F11",
"4. c #B3610B",
"5. c #BA660D",
"6. c #BE6A11",
"7. c #C16A0C",
"8. c #C86E09",
"9. c #CC7109",
"0. c #D57607",
"q. c #DE7A06",
"w. c #D37509",
"e. c #DC7A09",
"r. c #C06A10",
"t. c #048336",
"y. c #058C36",
"u. c #0A8D36",
"i. c #088639",
"p. c #028C39",
"a. c #1B8E32",
"s. c #0C9037",
"d. c #0A9038",
"f. c #139236",
"g. c #1A9636",
"h. c #2D8A2F",
"j. c #3A872C",
"k. c #249A35",
"l. c #249836",
"z. c #2C9E34",
"x. c #319E32",
"c. c #2DA033",
"v. c #33A133",
"b. c #3BA431",
"n. c #4A8A2A",
"m. c #528125",
"M. c #598A25",
"N. c #568828",
"B. c #599428",
"V. c #419C31",
"C. c #6E8D27",
"Z. c #7B8525",
"A. c #659528",
"S. c #48A82F",
"D. c #54AE2E",
"F. c #5BB22D",
"G. c #42A630",
"H. c #43A832",
"J. c #4AA931",
"K. c #53AC30",
"L. c #5CB130",
"P. c #66A82A",
"I. c #77A22B",
"U. c #63B42D",
"Y. c #6DB62C",
"T. c #6EB92B",
"R. c #72B62B",
"E. c #73BA2A",
"W. c #7CBD2B",
"Q. c #6AB731",
"!. c #73B830",
"~. c #7FC02C",
"^. c #7B8376",
"/. c #7F887A",
"(. c #838B26",
"). c #838B29",
"_. c #8F9B2A",
"`. c #909A28",
"'. c #88AA2A",
"]. c #9FAD28",
"[. c #86BD2B",
"{. c #96B52B",
"}. c #9BA730",
"|. c #A1AD2A",
" X c #A9B92C",
".X c #E78104",
"XX c #E98306",
"oX c #E38109",
"OX c #F08600",
"+X c #83C12B",
"@X c #8BC32B",
"#X c #92C52B",
"$X c #97C42A",
"%X c #9CC92A",
"&X c #A3CB2B",
"*X c #ACCE2A",
"=X c #B6CB2D",
"-X c #AED12D",
";X c #B4D22A",
":X c #BDD52B",
">X c #BFD92F",
",X c #AECB34",
"<X c #BACD33",
"1X c #BED730",
"2X c #C3D72A",
"3X c #C1D82B",
"4X c #C0CF34",
"5X c #C2D432",
"6X c #838C7E",
"7X c #858F80",
"8X c #879283",
"9X c #8A9686",
"0X c #8E9A8A",
"qX c #919E8D",
"wX c #92A08F",
/* pixels */
"qXqXqXqXqXqXqXqXqXqXqXqXqXqXqXqXqXqXqXqXqXqXqXqXqXqXqXqXqXqXqXqXqXqXqXqXqXqXqXqXqXqXqXqXqXqXqXqXqXqXqXqXqXqXqXqXqXqXqXqXqXqXqXqX",
"qXqXqXqXqXqXqXqXqXqXqXqXqXqXqXqXqXqXqXqXqXqXqXqXqXqXqXo.R R R R R R R } qXqXqXqXqXqXqXqXqXqXqXqXqXqXqXqXqXqXqXqXqXqXqXqXqXqXqXqX",
"qXqXqXqXqXqXqXqXqXqXqXqXqXqXqXqXqXqXqXqXqXqXqXqX8X$.$.] D D D D D D D I $.$.$.$.qXqXqXqXqXqXqXqXqXqXqXqXqXqXqXqXqXqXqXqXqXqXqXqX",
"qXqXqXqXqXqXqXqXqXqXqXqXqXqXqXqXqXqXqXqXqXqXqXqX+.X X (.2X2X2X2X2X2X2X].X X X O qXqXqXqXqXqXqXqXqXqXqXqXqXqXqXqXqXqXqXqXqXqXqXqX",
"qXqXqXqXqXqXqXqXqXqXqXqXqXqXqXqXqXqXqXqXqXqXqXr T 2X2X2X2X2X2X2X2X2X2X-XR.-X2X<XO +.qXqXqXqXqXqXqXqXqXqXqXqXqXqXqXqXqXqXqXqXqXqX",
"qXqXqXqXqXqXqXqXqXqXqXqXqXqXqXqXqXqXqXqXqX8XR n j.+X@X*X2X2X2X2X2X2X&X#X*X@X+X@X`.^ [ qXqXqXqXqXqXqXqXqXqXqXqXqXqXqXqXqXqXqXqXqX",
"qXqXqXqXqXqXqXqXqXqXqXqXqXqXqXqXqXqXqXqXqX6XX b a.J.Y.#X&X&X:X2X2X&X+XW.&XW.T.E.&XZ./ @.9XqXqXqXqXqXqXqXqXqXqXqXqXqXqXqXqXqXqXqX",
"qXqXqXqXqXqXqXqXqXqXqXqXqXqXqXqXqXqXqXqXqX6XX s N u.Q.T.T.T.*X3X1XE.T.T.!.!.E.E.!.&X XX ^.qXqXqXqXqXqXqXqXqXqXqXqXqXqXqXqXqXqXqX",
"qXqXqXqXqXqXqXqXqXqXqXqXqXqXqXqXqXqXqX< < r 4XS     i.y.l.T.E.E.E.T.v.m X X X X X n m X ^.qXqXqXqXqXqXqXqXqXqXqXqXqXqXqXqXqXqXqX",
"qXqXqXqXqXqXqXqXqXqXqXqXqXqXqXqXqX$.R _._._.@XA.C._.j b d.l.F.D.l.l.n l `.`.`.`.`.Y i c z O.qXqXqXqXqXqXqXqXqXqXqXqXqXqXqXqXqXqX",
"qXqXqXqXqXqXqXqXqXqXqXqXqXqXqXqXqXo.X 5X2X;XT.T.@X5X* g p.p.D.G.p.p.a S 2X2X2X2X2X/ $ p.% [ qXqXqXqXqXqXqXqXqXqXqXqXqXqXqXqXqXqX",
"qXqXqXqXqXqXqXqXqXqXqXqXqXqXqXqXqXo.X 5X3X;XT.T.@X5X* g y.p.D.G.p.p.a S 2X2X2X2X2XQ $ p.% [ qXqXqXqXqXqXqXqXqXqXqXqXqXqXqXqXqXqX",
"qXqXqXqXqXqXqXqXqXqXqXqXqXqX6X* * / <XE.E.E.T.T.T.E.Y.$X@Xp.K.G.i.@ Z.:X2X2X2X2X2X:X|.  b h , , +.qXqXqXqXqXqXqXqXqXqXqXqXqXqXqX",
"qXqXqXqXqXqXqXqXqXqXqXqXqX+.' g g n.@XE.N.U U F F F Y.+XW.G.U.F.G.).'.%X2X2X2X2X2X2X XX c A (.(...` ` 9XqXqXqXqXqXqXqXqXqXqXqXqX",
"qXqXqXqXqXqXqXqXqXqXqXqXqX[ $ p.p.l.J.N.Q H H H H T N.P.T.T.D.F.T.&X@X[.2X2X2X2X2X2X XT a m.*X2X).H T @./.qXqXqXqXqXqXqXqXqXqXqX",
"qXqXqXqXqXqXqXqXqXqXqXqXqX[ $ p.p.p.i.* Z.2X2X2X2X2X= ~ T.T.l.x.T.E.E.~.>X2X2X2X2X2X>X:XD U !.>X2X2X1X= [ qXqXqXqXqXqXqXqXqXqXqX",
"qXqXqXqXqXqXqXqXqXqXqXqXqX[ # v v u   <X3X2X2X2X2X3X5X@XT.T.Q.Y.E.1X#XT.E.;X2X2X2X#XE.E.,XZ.* E.&X;XE.* [ qXqXqXqXqXqXqXqXqXqXqX",
"qXqXqXqXqXqXqXqXqXqXqXqX} ^ W & & l Z.#X*X2X2X2X;X#X#XW.T.T.T.T.E.#XW.T.T.@X#X#X#XW.T.T.@X'.Z.T.+X@XT.Z.( } qXqXqXqXqXqXqXqXqXqX",
"qXqXqXqXqXqXqXqXqX^.$.#.T C.I.X X H *XE.%X2X*X*X#XT.M.M.M.M.M.M.N.Y.T.T.T.T.T.T.T.W.+XT.T.@X&XY.T.E.+X:X(.O qXqXqXqXqXqXqXqXqXqX",
"qXqXqXqXqXqXqXqXqXr X X =X2X XX X F Y.T.%X;XT.T.T.!.* X X X X X X !.Y.T.T.T.T.T.T.&X;XT.T.T.T.E.T.+X3X3X(.* wXqXqXqXqXqXqXqXqXqX",
"qXqXqXqXqXqXqX7XX |.3X5X2X2X;X!.Y.~   Y.T.E.T.T.m.X <X3X3X3X3X3X5XX ! T.T.T.T.T.T.T.E.T.T.T.E.3X#XT.E.E.#X<XX %.qXqXqXqXqXqXqXqX",
"qXqXqXqXqXqXqX7XX |.2X2X2X2X;XT.T.A.! T.T.T.T.! Q Z.2X2X2X2X2X2X3XZ.Q W v.U.T.T.T.J.b.T.T.T.E.#XW.T.T.T.W.[.X %.qXqXqXqXqXqXqXqX",
"qXqXqXqXqXqX6X#.D {.;X2X2X;X&X+X+XW.T.D.U.Y.N.T ( 3X*X:X2X2X;X*X*X2X(.U b G.D.D.T.b.z.T.T.U.D.T.T.Y.D.Y.U.K.X %.qXqXqXqXqXqXqXqX",
"qXqXqXqXqXqX} = 2X+X@X2X2X#XW.3X2X&XY.u.b.P.X |.2X3XE.&X2X2X+XT.E.3X2X].X V p.u.Q.T.Y.T.T.G.s.T.T.D.y.U.H.i.X %.qXqXqXqXqXqXqXqX",
"qXqXqXqXqX< W P.E.T.E.E.E.E.E.E.E.E.T.U.Y.P.X |.*XE.T.E.E.E.E.T.T.E.&X].X d v x u.J.L.s.D.Y.U.T.T.T.U.f.n * 9X0XqXqXqXqXqXqXqXqX",
"qXqXqXqXqXO Z b.T.T.W.%XE.T.W.%X%X@XT.T.T.P.P ( C.T.T.T.T.T.#X@XT.T.C.T X % > > p h.z.p.l.v.v.v.K.U.v.u.g O qXqXqXqXqXqXqXqXqXqX",
"qXqXqXqXqXO h s.K.Y.+X*XE.T.W.*X-X#XT.T.F.D.T.U W T.+XW.T.T.%X#XT.B.Q D D D D D D Z N t.p.p.p.p.v.G.p.p.C I %.%.^.qXqXqXqXqXqXqX",
"qXqXqXqXqXX h p.p.D.T.T.T.T.T.T.T.T.T.T.v.f.T.T.Y.E.:X#XT.T.T.T.!.X Z.3X3X3X3X2X2X/ # x t.p.y.y.p.p.p.p.J.<XX X 1 qXqXqXqXqXqXqX",
"qXqXqXqXqX0X{ # # m z.T.T.T.T.T.T.S.s.u.b.U.T.T.T.T.E.E.T.T.T.T.E.=X{.E.E.E.E.W.E.$X}.X B.U.Y.-XQ > p.p.x.W.=X=X}.< 8XqXqXqXqXqX",
"qXqXqXqXqXqX} X u i Z z.z.z.z.z.z.g.y.H.b.v.T.T.T.T.T.T.T.T.T.T.E.@XW.W.&XW.T.T.T.[.[.~ {.&X&X@X'.( i V.Q.&X3X2X=X).] +.qXqXqXqX",
"qXqXqXqXqX6X .j v i h t.p.p.p.p.p.s.g.Y.G.l.T.T.T.T.D.U.T.T.T.T.T.T.T.W.*XW.T.T.+XE.E.+X;X:X*XY.#X{.S N.'.2X2X;X*X*X: [ qXqXqXqX",
"qXqXqXqXqXO W F.p.p.B x p.p.p.p.p.z.T.T.T.T.T.T.T.T.u.H.T.T.T.T.T.T.T.T.T.T.T.E.2X@XW.2X2X%XT.T.T.+X2X= / 2X2X@XT.T.; [ qXqXqXqX",
"qXqXqXqXqXO W U.p.p.B x p.p.p.p.p.z.T.T.T.T.T.T.T.T.u.G.T.T.T.T.T.T.T.T.T.T.T.E.2X@XW.2X2X%XT.T.T.+X2X= / 2X2X@XT.T.; [ qXqXqXqX",
"qXqXqX/.' ).I.Y.G.f.p.B b.U.!.!.!.E.T.T.T.T.T.b.H.T.G.F.T.T.b.J.T.T.T.T.T.T.T.T.@XW.E.#X@X[.E.&X+XE.#X= / >X#XW.T.T.; [ qXqXqXqX",
"qXqX8X+.: =X#XT.T.l.u.V E.%X;X;X;X%XT.W.E.T.T.l.v.T.T.T.T.T.z.v.T.T.T.T.T.U.F.F.T.T.Y.F.Y.T.E.;X@XY.L.* Q ;XT.T.Y.F.; [ qXqXqXqX",
"qXqX_ T >XE.T.T.T.T.m.. =X#XT.T.T.E.E.>X#XT.T.T.T.T.T.T.T.T.T.T.T.T.T.T.T.g.p.y.T.T.F.y.D.T.T.T.T.D.p.# F T.T.T.F.p.# [ qXqXqXqX",
"qXqX_ > g.Y.T.T.T.y Q  XW.E.W.;X;X%XT.W.E.T.T.T.J.f.U.v.z.T.T.T.T.T.T.F.f.p.p.y.T.T.Y.F.Y.T.T.T.b.C # N i.f.T.T.F.p.# [ qXqXqXqX",
"qXqX_ > p.z.D.U.x.- Y #XE.T.E.#X#X+XT.T.T.P.G h.l.p.z.f.g.T.T.T.T.T.J.h.a B p.p.x.D.U.x.U.D.x.y k p g i.p.y.c.x.l.M # [ qXqXqXqX",
"qXqX .z N p.z.J.p.i l B.Y.T.T.T.T.T.T.T.P.N.% V t.N p.p.g.D.B.P.T.D.l.V % c N N N j.n.N n.j.b $ $ a p.p.p.p.p.t.B s z o.qXqXqXqX",
"qXqXqX#.  i.p.p.p.v u X P.T.T.T.T.T.T.T.W # p.p.c   i.p.p.p.% U Y.y.p.p.p.$ X X X X X X X X   x B p.p.p.p.p.p.M d X 6XqXqXqXqXqX",
"qXqXqX0XqX, p v v x x d - m.T.T.T.m.; ; a c p.p.B d $ $ $ $ u m f.p.p.p.p.c d s X i d d d d d x x v v y.t.v $ # z 0XqXqXqXqXqXqX",
"qXqXqXqXqX+.) i x x x x u k G G G k i i s x M M c & X X X X s v M M M M B i > & X $ & & d x x x x x x M c > X.X.@.qXqXqXqXqXqXqX",
"qXqXqXqXqXqX+.R s s s s s j 1 1 1 j s s s s s s t + X X X + i s s s s s s # X X X o + + i s s s s s s s a 1 qXqXqXqXqXqXqXqXqXqX",
"qXqXqXqXqXqXqX7X. . . . X o.qXqXqXO.. . . X X X + 9 X X + 9 + . . . . . . X X X X 3 9 9 + . . . . . . . ' qXqXqXqXqXqXqXqXqXqXqX",
"qXqXqXqXqXqXqXqX8X8X8X8X8X0XqXqXqX0X8X8X8X^.X 3 9 &.J 7 = &.J 0 4 J J q 4 + X X J J w + +./././././././.8XqXqXqXqXqXqXqXqXqXqXqX",
"qXqXqXqXqXqXqXqXqXqXqXqXqXqXqXqXqXqXqXqXqX9X} 7 6 *.1.J 0 *.;.=.q 1.1.=.2 5 5 5 *.0 8 } 7XqXqXqXqXqXqXqXqXqXqXqXqXqXqXqXqXqXqXqX",
"qXqXqXqXqXqXqXqXqXqXqXqXqXqXqXqXqXqXqXqXqXqXqX[ r w 7.2.=.*.4.2.-.r.5.,.= *.;.;.w r _ qXqXqXqXqXqXqXqXqXqXqXqXqXqXqXqXqXqXqXqXqX",
"qXqXqXqXqXqXqXqXqXqXqXqXqXqXqXqXqXqXqXqXqXqXqXqX+.. oXw.4.*.4.7.7.7.1.*.*.q.OXXX. $.qXqXqXqXqXqXqXqXqXqXqXqXqXqXqXqXqXqXqXqXqXqX",
"qXqXqXqXqXqXqXqXqXqXqXqXqXqXqXqXqXqXqXqXqXqXqXqX+.. oXw.7.5.e.e.7.7.<.-.5..XOXXX. $.qXqXqXqXqXqXqXqXqXqXqXqXqXqXqXqXqXqXqXqXqXqX",
"qXqXqXqXqXqXqXqXqXqXqXqXqXqXqXqXqXqXqXqXqXqXqXqX+.. oXw.8.w.8.8.w.7.4.2.7..XOXXX. $.qXqXqXqXqXqXqXqXqXqXqXqXqXqXqXqXqXqXqXqXqXqX",
"qXqXqXqXqXqXqXqXqXqXqXqXqXqXqXqXqXqXqXqXqXqXqXqX+.. oXw.8.q.=.1.e.7.5.5.7..XOXXX. $.qXqXqXqXqXqXqXqXqXqXqXqXqXqXqXqXqXqXqXqXqXqX",
"qXqXqXqXqXqXqXqXqXqXqXqXqXqXqXqXqXqXqXqXqXqXqXqX+.. oXw.4.*.= 3 *.r.<.-.7..XXXXX. $.qXqXqXqXqXqXqXqXqXqXqXqXqXqXqXqXqXqXqXqXqXqX",
"qXqXqXqXqXqXqXqXqXqXqXqXqXqXqXqXqXqXqXqXqXqXqXqX+.. oXw.4.*.= 3 *.r.<.-.7..XOXXX. $.qXqXqXqXqXqXqXqXqXqXqXqXqXqXqXqXqXqXqXqXqXqX",
"qXqXqXqXqXqXqXqXqXqXqXqXqXqXqXqXqXqXqXqXqXqXqXqX+.. oXw.4.*.3 6 *.r.<.-.7..XOXXX. $.qXqXqXqXqXqXqXqXqXqXqXqXqXqXqXqXqXqXqXqXqXqX",
"qXqXqXqXqXqXqXqXqXqXqXqXqXqXqXqXqXqXqXqXqXqXqXqX+.. oXw.4.=.q q =.7.<.-.7..XOXXX. $.qXqXqXqXqXqXqXqXqXqXqXqXqXqXqXqXqXqXqXqXqXqX",
"qXqXqXqXqXqXqXqXqXqXqXqXqXqXqXqXqXqXqXqXqXqXqXqX+.. oXw.7.7.-.;.7.7.<.-.7..XOXXX. $.qXqXqXqXqXqXqXqXqXqXqXqXqXqXqXqXqXqXqXqXqXqX",
"qXqXqXqXqXqXqXqXqXqXqXqXqXqXqXqXqXqXqXqXqXqXqXqX+.. 7.2.;.7.0.w.7.7.9.9.-.q.OXXX. $.qXqXqXqXqXqXqXqXqXqXqXqXqXqXqXqXqXqXqXqXqXqX",
"qXqXqXqXqXqXqXqXqXqXqXqXqXqXqXqXqXqXqXqXqXqXqX@.| K 6.2.:.L w.q.7.7.e.w.6 8.q.e.K ..+.qXqXqXqXqXqXqXqXqXqXqXqXqXqXqXqXqXqXqXqXqX",
"qXqXqXqXqXqXqXqXqXqXqXqXqXqXqXqXqXqXqXqX9X8X7XI L XX2.3.,.7 7.w.3.7.0.8.7 ,.3.2.oX>.r 7X7X9XqXqXqXqXqXqXqXqXqXqXqXqXqXqXqXqXqXqX",
"qXqXqXqXqXqXqXqXqXqXqXqXqXqXqXqXqXqXqXqX[ X X 8.q.6.+ X 8 XX9.>.. 6.7.9.XX7 X o r.e.9.X X } qXqXqXqXqXqXqXqXqXqXqXqXqXqXqXqXqXqX",
"qXqXqXqXqXqXqXqXqXqXqXqXqXqXqXqXqXqXqXR E ,.w -.K 7 w w K ;.-.0 X =.-.-.;.J w w 7 K :.w ,.E R qXqXqXqXqXqXqXqXqXqXqXqXqXqXqXqXqX",
"qXqXqXqXqXqXqXqXqXqXqXqXqXqXqXqXqX/.} O 7 e 6 6 7 . 5 6 6 6 6 7 X 5 6 6 6 6 6 5 . 7 5 5 e 7 O +.6XqXqXqXqXqXqXqXqXqXqXqXqXqXqXqX",
"qXqXqXqXqXqXqXqXqXqXqXqXqXqXqXqXqX+.< < < < < < < < < < < < < < < < < < < < < < < < < < < < < < o.qXqXqXqXqXqXqXqXqXqXqXqXqXqXqX",
"qXqXqXqXqXqXqXqXqXqXqXqXqXqXqXqXqXqXqXqXqXqXqXqXqXqXqXqXqXqXqXqXqXqXqXqXqXqXqXqXqXqXqXqXqXqXqXqXqXqXqXqXqXqXqXqXqXqXqXqXqXqXqXqX"
};
