/* XPM */
static char *e27c1ffc18c04eabf48c8b165412ce2fi4MlgWN6WtqwctEh[] = {
/* columns rows colors chars-per-pixel */
"64 64 175 2 ",
"   c #46130D",
".  c #4B160D",
"X  c #4E1E0E",
"o  c #52150E",
"O  c #511C0E",
"+  c #431512",
"@  c #4B1611",
"#  c #421D17",
"$  c #4D1B13",
"%  c #451F1D",
"&  c #4A1E1B",
"*  c #531C12",
"=  c #591D15",
"-  c #53220F",
";  c #5B220E",
":  c #47201B",
">  c #4C221A",
",  c #552313",
"<  c #5A2415",
"1  c #5D2A16",
"2  c #552519",
"3  c #592419",
"4  c #5D2C1A",
"5  c #5A321F",
"6  c #662616",
"7  c #622A16",
"8  c #6A2C16",
"9  c #66271A",
"0  c #642D1A",
"q  c #6C2D1A",
"w  c #623015",
"e  c #6F3315",
"r  c #643018",
"t  c #6B331B",
"y  c #6E3A1D",
"u  c #763317",
"i  c #72321B",
"p  c #753D1E",
"a  c #793B1F",
"s  c #4B2522",
"d  c #4C2827",
"f  c #4E2A2A",
"g  c #5E2321",
"h  c #512A27",
"j  c #522E2A",
"k  c #523227",
"l  c #54342E",
"z  c #533A2F",
"x  c #58392E",
"c  c #4F3330",
"v  c #523634",
"b  c #543B35",
"n  c #5A3D36",
"m  c #573E3B",
"M  c #6E2C21",
"N  c #673521",
"B  c #6C3420",
"V  c #6E3D24",
"C  c #653529",
"Z  c #743D21",
"A  c #7A3A24",
"S  c #783F2A",
"D  c #77431F",
"F  c #5A433C",
"G  c #764324",
"H  c #7C4424",
"J  c #7C4B23",
"K  c #75422C",
"L  c #7C4A28",
"P  c #7B4830",
"I  c #5C4641",
"U  c #5E4B44",
"Y  c #604E49",
"T  c #615047",
"R  c #64554C",
"E  c #665C52",
"W  c #6A5E54",
"Q  c #6A6456",
"!  c #6C655A",
"~  c #6F695C",
"^  c #726C62",
"/  c #76776A",
"(  c #797B6D",
")  c #7B7E71",
"_  c #813617",
"`  c #84351B",
"'  c #823C1D",
"]  c #813D21",
"[  c #9C4B1F",
"{  c #85551F",
"}  c #88531F",
"|  c #824422",
" . c #864824",
".. c #8B4B25",
"X. c #8E4728",
"o. c #834C2B",
"O. c #8D4E28",
"+. c #914522",
"@. c #944C27",
"#. c #994924",
"$. c #865224",
"%. c #86512A",
"&. c #8F532D",
"*. c #945627",
"=. c #92542B",
"-. c #935929",
";. c #9C5C2D",
":. c #984E33",
">. c #8C5734",
",. c #9A5834",
"<. c #A55223",
"1. c #A85723",
"2. c #A75925",
"3. c #AF5B25",
"4. c #A95E29",
"5. c #A25F30",
"6. c #AD5A32",
"7. c #9D602E",
"8. c #A3652C",
"9. c #AB6129",
"0. c #AD6D2C",
"q. c #B66127",
"w. c #B26E27",
"e. c #BE6B27",
"r. c #B3642C",
"t. c #B16D2D",
"y. c #B26C2C",
"u. c #B56C2D",
"i. c #A26231",
"p. c #A96730",
"a. c #AF6B39",
"s. c #B66432",
"d. c #B26F31",
"f. c #B06D37",
"g. c #BD6C30",
"h. c #C26C2D",
"j. c #CE7226",
"k. c #C4722C",
"l. c #CD722B",
"z. c #D37525",
"x. c #D87526",
"c. c #D77826",
"v. c #DF7D27",
"b. c #D2772E",
"n. c #D77A2B",
"m. c #DA7B29",
"M. c #C47232",
"N. c #C97332",
"B. c #E27E26",
"V. c #E27E2B",
"C. c #7D8174",
"Z. c #F7871F",
"A. c #F9871D",
"S. c #F5881F",
"D. c #F9891D",
"F. c #E48125",
"G. c #EC8424",
"H. c #EF8A27",
"J. c #E7842A",
"K. c #EB8829",
"L. c #F48722",
"P. c #F58821",
"I. c #818376",
"U. c #818779",
"Y. c #83897A",
"T. c #858C7E",
"R. c #868E7F",
"E. c #898B7F",
"W. c #868F80",
"Q. c #869081",
"!. c #8B9586",
"~. c #8C9687",
"^. c #8E9A89",
"/. c #919E8D",
"(. c #92A08F",
/* pixels */
"/./././././././././././././././././././././././././././././././././././././././././././././././././././././././././././././././.",
"/./././././././././././././././././././././././././././././././././././././././././././././././././././././././././././././././.",
"/./././././././././././././././././././././././././././././././././././././././././././././././././././././././././././././././.",
"/./././././././././././././././././././././././././././././././././././././././././././././././././././././././././././././././.",
"/./././././././././././././././././././././././././././././././././././././././././././././././././././././././././././././.(./.",
"/././././././././././././././././././././././././././././././././././././././././././././././././././././././././.(././././.(./.",
"/./././././././././././././././././././././././././././././././././././././././././././././././././././././././././././././././.",
"/./././././././././././././././././././././././././././././././././././././././././././././././././././././././././././././././.",
"/./././././././././././././././././././././././././././././././././././././././././././././././././././././././././././././././.",
"/./././././././././././././././././././././././././././././././././././././././././././././././././././././././././././././././.",
"/./././././././././././././././././././././././././././././././././././././././././././././././././././././././././././././././.",
"/././././././././././././././././././././././././././././././.W.~./././././././././././././././././././././././././././.(.(././.",
"/./././././././././././././././././././././././././././././ b 2 v /././././././././././././././././././././././././././././././.",
"/././././././././././././././././././././././././././.R.k t ;.Z F /././././././././././././././././././././././././././././././.",
"/././././././././././././././././././././././././././.b Z ..&.G ~ /././././././././././././././././././././././././././././././.",
"/././././././././././././././././././././././././././.!.! C o.t Y./././././././././././././././././././././././././././././././.",
"/././././././././././././././././././././././././././././.F H 5 /././././././././././././././././././././././././././.(././././.",
"/././././././././././././././././././././././././././././.! 4 n /././././././././././././././././././././././././././././././.(.",
"/././././././././././././././././././././././././././././.W 4 W /././././././././././././././././././././././././././././././.(.",
"/./././././././././././././././././././././././././.C.W m : O 4 j I Q U././././././././././././././././././././././././././././.",
"/././././././././././././././././././././././.Y.U # 1 | 0 < 5.y.i * G 7 : E R./././././././././././././././././././././././././.",
"/././././././././././././././././././././.~.I $ $ * ,.0.7 y | ;.r =.e f.A * + E /./././././././././././././././././././././././.",
"/./././././././././././././././././././.C.% t H  .8.8 0 O.d.a < p.y.O.7 t %.< & n ^././././././././././././././././././././.(.(.",
"/././././././././././././././././././.R.$ p H i 0.y.0.$ =.w.*.* 8.y.;.@ J } y $ r z !./././././././././././././././././././././.",
"/././././././././././././././././././.v | d.Z t O.0.' =.8 >.q 7.i 8.; o.0 H , < %.1 F /./././././././././././././././.(.(./././.",
"/./././././././././././././././././.C.$ a.0.Z 0.| S 6 y.8.= H u.p 1 J { 1 1 J w P 1   I././././././././././././././././././././.",
"/./././././././././././././././././.U 0 t q -.u.y.0 p u.;.< t 8.p 3 $.$., V { y O G 0 U /./././././././././././././././././././.",
"/./././././././././././././././././.j Z -.X 0 i.0.; B =.a H , o.< 3 G t y 1 J * 0 J , f /./././././././././././././././././././.",
"/./././././././././././././././././.: D $.* J * Z - V , , N 2 4 , 4 , $ H 3 < K O 0 Z % /./././././././././././././././././././.",
"/./././././././././././././././././.h Z G $ , .   * ; 6 q i u u i q 9 < *   . , @ L p f /././././././././././././././.(././././.",
"/./././././././././././././././././.T @   t <.e.n.F.F.G.G.G.G.G.F.B.v.m.b.h.4.M g   @ Y /./././././././././././././././.(.(././.",
"/./././././././././././././././././.Q.I :.n.S.P.S.S.P.P.S.S.S.S.S.P.S.P.P.H.z.2.X.A ^ Q././././././././././././././././././././.",
"/././././././././././././././././././.( 1.F.S.P.S.P.P.P.P.P.P.P.P.Z.P.P.S.S.x.l.#.A E./././././././././././././././././.(.(././.",
"/././././././././././././././././././.( [ S.S.S.S.S.S.S.S.S.S.S.S.S.S.S.S.L.z.l.6.0 ~./././././././././././././././././././././.",
"/././././././././././././././././././.) ' P.S.S.S.S.S.S.S.S.S.S.S.S.S.S.S.G.l.l.<.1 ^./././././././././././././././././././././.",
"/././././././././././././././././././.~.6 P.L.S.P.S.S.S.S.S.S.S.S.S.S.S.S.G.l.j.M.> /./././././././././././././././././././././.",
"/./././././././././././././././././././.$ K.D.S.L.S.S.S.S.S.S.S.S.S.P.S.P.B.l.j.r.x /./././././././././././././././././././././.",
"/./././././././././././././././././././.l h.S.S.S.S.S.S.S.S.S.S.S.S.P.D.P.c.l.l.@.T /./././././././././././././././././././././.",
"/./././././././././././././././././././.R _ Z.P.S.S.S.S.S.S.S.S.S.P.P.A.H.j.l.N.6 ^ /./././././././././././././././././././././.",
"/./././././././././././././././././././.Q.. J.S.S.S.S.S.S.S.S.S.S.S.P.P.B.j.j.9.+ !./././././././././././././././././././.(.(./.",
"/././././././././././././././././././././.n <.D.P.S.S.S.S.S.S.S.S.S.S.P.z.l.l.a m /././././././././././././././././././././././.",
"/././././././././././././././././././././.) * J.S.S.P.S.S.S.S.P.P.S.S.F.l.j.s.$ R./././././././././././././././././././././././.",
"/./././././././././././././././././././././.I ` P.S.L.S.S.S.S.P.P.S.G.z.j.h.8 W /./././././././././././././././././././././././.",
"/./././././././././././././././././././././.^.s +.H.A.P.S.S.S.S.S.L.z.l.k.q l ^././././././././././././././././.(././././.(././.",
"/././././././././././././././././././././././.R.s ' V.P.P.P.P.P.P.z.l.g.8 c R./././././././././././././././././.(./././././.(./.",
"/./././././././././././././././././././././././.R.v o [ J.S.A.S.m.s.] . F ~././././././././././././././././././././././././.(./.",
"/./././././././././././././././././././././././././.^ d O ' q.3.q   n ! /./././././././././././././././././././././././././././.",
"/./././././././././././././././././././././././././././.) U & & I I././././././././././././././././././././././././././././././.",
"/././././././././././././././././././././././././././././././.(././././././././././././././././././././././././././././././././.",
"/./././././././././././././././././././././././././././././././././././././././././././././././././././././././././././././././.",
"/././././././././././././././././././././././././././././././././././././././././././././././././././././././././././././././.(.",
"/././././././././././././././././././././././././././././././././././././././././././././././././././././././././././././././.(.",
"/./././././././././././././././././././././././././././././././././././././././././././././././././././././././././././././././.",
"/./././././././././././././././././././././././././././././././././././././././././././././././././././././././././././././././.",
"/./././././././././././././././././././././././././././././././././././././././././././././././././././././././././././.(.(././.",
"/./././././././././././././././././././././././././././././././././././././././././././././././././././././././././././././././.",
"/./././././././././././././././././././././././././././././././././././././././././././././././././././././././././././.(.(././.",
"/./././././././././././././././././././././././././././././././././././././././././././././././././././././././././././././././.",
"/./././././././././././././././././././././././././././././././././././././././././././././././././././././././././././././././.",
"/./././././././././././././././././././././././././././././././././././././././././././././././././././././././././././././././.",
"/./././././././././././././././././././././././././././././././././././././././././././././././././././././././././././././././.",
"/./././././././././././././././././././././././././././././././././././././././././././././././././././././././././././././././.",
"/./././././././././././././././././././././././././././././././././././././././././././././././././././././././././././././././.",
"/././././././././././././././././././././././././././././././././././././././././././././././././././././././././././././.(.(./."
};
