/* XPM */
static char *_b33b01d076944448e69d564f657b187PHrsn5R386rWUqDF[] = {
/* columns rows colors chars-per-pixel */
"64 62 240 2 ",
"   c #2D3819",
".  c #3C2D22",
"X  c #3D342A",
"o  c #2F3F2A",
"O  c #422D1C",
"+  c #49321E",
"@  c #433223",
"#  c #45392C",
"$  c #4C3B2C",
"%  c #483728",
"&  c #533C2B",
"*  c #593F29",
"=  c #523924",
"-  c #4C3F32",
";  c #4C382E",
":  c #2F401E",
">  c #374928",
",  c #3B542D",
"<  c #3D4532",
"1  c #507019",
"2  c #454C2A",
"3  c #56412D",
"4  c #5B422D",
"5  c #584D2A",
"6  c #465A2A",
"7  c #555C2B",
"8  c #4D4134",
"9  c #4A4738",
"0  c #544434",
"q  c #5B4533",
"w  c #5C4A35",
"e  c #554639",
"r  c #564A3C",
"t  c #5C4C3B",
"y  c #574939",
"u  c #495736",
"i  c #545A34",
"p  c #5D523D",
"a  c #585838",
"s  c #64452C",
"d  c #624929",
"f  c #634B35",
"g  c #6B4D34",
"h  c #634D3A",
"j  c #674A36",
"k  c #6F5136",
"l  c #64513D",
"z  c #6B533C",
"x  c #685A38",
"c  c #735337",
"v  c #73553B",
"b  c #735A3E",
"n  c #7C5A3C",
"m  c #7C5837",
"M  c #6F5134",
"N  c #4A6826",
"B  c #5C682D",
"V  c #57642A",
"C  c #597327",
"Z  c #586335",
"A  c #586537",
"S  c #68782B",
"D  c #72752B",
"F  c #676537",
"G  c #736B38",
"H  c #6A7636",
"J  c #767738",
"K  c #656A2C",
"L  c #5C4E42",
"P  c #564A44",
"I  c #5C5144",
"U  c #5D564B",
"Y  c #575846",
"T  c #5D5B51",
"R  c #4F574F",
"E  c #634D44",
"W  c #645342",
"Q  c #6B5642",
"!  c #655B43",
"~  c #6D5944",
"^  c #645649",
"/  c #645A4C",
"(  c #6B5C4B",
")  c #745543",
"_  c #735A44",
"`  c #7A5D44",
"'  c #735E4A",
"]  c #795C4A",
"[  c #645E52",
"{  c #6B5E52",
"}  c #675450",
"|  c #735B55",
" . c #596648",
".. c #5C6259",
"X. c #5C6257",
"o. c #5B7047",
"O. c #6D624D",
"+. c #656A47",
"@. c #7B6344",
"#. c #74624D",
"$. c #7B634C",
"%. c #786948",
"&. c #6A7547",
"*. c #797744",
"=. c #656154",
"-. c #6C6354",
";. c #6B665A",
":. c #64685D",
">. c #6D6A5D",
",. c #676656",
"<. c #746553",
"1. c #7A6652",
"2. c #766955",
"3. c #7C6954",
"4. c #736B5C",
"5. c #7C6D5A",
"6. c #72645A",
"7. c #7C715C",
"8. c #767958",
"9. c #6A7E59",
"0. c #6D6D62",
"q. c #656D63",
"w. c #726E61",
"e. c #7B6763",
"r. c #6D7264",
"t. c #6C766B",
"y. c #6E786E",
"u. c #677266",
"i. c #747265",
"p. c #7C7463",
"a. c #747A6D",
"s. c #7C7B6C",
"d. c #767769",
"f. c #6F7A72",
"g. c #737D72",
"h. c #7B7E72",
"j. c #825C3B",
"k. c #885F3C",
"l. c #88653D",
"z. c #936C3D",
"x. c #97733D",
"c. c #82703A",
"v. c #805F42",
"b. c #8A6543",
"n. c #82664B",
"m. c #886949",
"M. c #936B44",
"N. c #936742",
"B. c #84744D",
"V. c #8B7B4F",
"C. c #997441",
"Z. c #967343",
"A. c #836B53",
"S. c #826E5B",
"D. c #886E54",
"F. c #84735C",
"G. c #8A735B",
"H. c #897954",
"J. c #947756",
"K. c #A27A46",
"L. c #847B66",
"P. c #8B7B65",
"I. c #857A67",
"U. c #957F66",
"Y. c #55861A",
"T. c #668E19",
"R. c #598123",
"E. c #678627",
"W. c #6F8C31",
"Q. c #75894E",
"!. c #7A8655",
"~. c #7E9459",
"^. c #6F8545",
"/. c #77826C",
"(. c #7A8376",
"). c #7C867A",
"_. c #7E887B",
"`. c #778176",
"'. c #B5873F",
"]. c #978657",
"[. c #83945A",
"{. c #868950",
"}. c #A98248",
"|. c #B58849",
" X c #AB8E5A",
".X c #8EA354",
"XX c #8A846B",
"oX c #948867",
"OX c #88946C",
"+X c #9E956F",
"@X c #828B7C",
"#X c #8A8B7B",
"$X c #898876",
"%X c #928A72",
"&X c #879679",
"*X c #9C9474",
"=X c #989478",
"-X c #A89865",
";X c #A79875",
":X c #A08561",
">X c #91A475",
",X c #B7AB75",
"<X c #C29346",
"1X c #838E80",
"2X c #869383",
"3X c #8A9485",
"4X c #8E9C8B",
"5X c #8B9A86",
"6X c #919E8D",
"7X c #989A85",
"8X c #8E9F91",
"9X c #939E92",
"0X c #A39D87",
"qX c #93A08F",
"wX c #96A284",
"eX c #95A391",
"rX c #98A694",
"tX c #9CA997",
"yX c #A9A687",
"uX c #B6AB83",
"iX c #BAB589",
"pX c #ABB298",
"aX c #A5B3A0",
"sX c #C2BB88",
"dX c #C1BA94",
"fX c #C0BFA1",
"gX c #D5CF8E",
"hX c #D2CA97",
"jX c #DAD496",
"kX c #CBC790",
"lX c #E1DB9A",
"zX c #E9E49E",
"xX c #D4D6AE",
"cX c #E2DAA2",
"vX c #EBE8A6",
"bX c #F2EDAC",
"nX c #F0EBA2",
"mX c #F6F1A9",
"MX c #F8F4B4",
"NX c #EBEBB5",
/* pixels */
"6X6X6X6X6X6X6X6X6X6X6X6X6X6X6X6X6X6X6X6X6X6X6X6X6X6X6X6X6X6X6X6X6X6X6X6X6X6X6X6X6X6XeX_.Y X.R r.rX6X6X6X6X6X6X6X6X6X6X6X6X6X6X6X",
"6X6X6X6X6X6X6X6X6X6X6X6X6X6X6X6X6X6X6X6X6X6X6X6X6X6X6X6X6X6X6X6X6X6X6X6X6X6X6XqXeXqX3XT 2XeX4XX.a.rX6X6X6X6X6X6X6X6X6X6X6X6X6X6X",
"6X6X6X6X6X6X6X6X6X6X6X6X6X6X6X6X6X6X6X6X6X6X6X6X6X6X6X6X6X6X6X6X6X6X6X6X6X6XqX3X@XrXt.a.rX4XqXeXX.4X6X6X6X6X6X6X6X6X6X6X6X6X6X6X",
"6X6X6X6X6X6X6X6X6X6X6X6X6X6X6X6X6X6X6X6X6X6X6X6X6X6X6X6X6X6X6X6X6X6X6X6X6X6XrX(.0.aXa.a.rX6X4XrXt._.eX6X6X6X6X6X6X6X6X6X6X6X6X6X",
"6X6X6X6X6X6X6X6X6X6X6X6X6X6X6X6X6X6X6X6X6X6X6X6X6X6X6X6X6X6X6X6X6X6X6X6X6X6X6X4Xt.@X..@XeX6X6XrXt.a.eX6X6X6X6X6X6X6X6X6X6X6X6X6X",
"6X6X6X6X6X6X6X6X6X6X6X6X6X6X6X6X6X6X6X6X6X6X6X6X6X6X6X6X6X6X6X6X6X6X6X6X6X6X6XeX3XX._.qX6X6X6XrXg.t.rX6X6X6X6X6X6X6X6X6X6X6X6X6X",
"6X6X6X6X6X6X6X6X6X6X6X6X6X6X6X6X6X6X6X6X6X6X6X6X6X6X6X6X6X6X6X6X6X6X6X6X6X6X6XeX2X>.eX6X6X6X6XeX_.t.rX6X6X6X6X6X6X6X6X6X6X6X6X6X",
"6X6X6X6X6X6X6X6X6X6X6X6X6X6X6X6X6X6X6X6X6X6X6X6X6X6X6X6X6X6X6X6X6X6X6X6X6X6X6X6Xi.X @XrX6X6X6XeX).q.rX6X6X6X6X6X6X6X6X6X6X6X6X6X",
"6X6X6X6X6X6X6X6X6X6X6X6X6X6X6X6X6X6X6X6X6X6X6X6X6X6X6X6X6X6X6X6X6X6X6X6X6XqX6X>.P P - i.qX6X6XeX_.:.rX6X6X6X6X6X6X6X6X6X6X6X6X6X",
"6X6X6X6X6X6X6X6X6X6X6X6X6X6X6X6X6X6X6X6X6X6X6X6X6X6X6X6X6X6X6X6X6X6X6X6X6X4XaXpXwXXX2.=.6X6X6XeX1Xq.rX6X6X6X6X6X6X6X6X6X6X6X6X6X",
"6X6X6X6X6X6X6X6X6X6X6X6X6X6X6X6X6X6X6X6X6X6X6X6X6X6X6X6X6X6X6X6X6X6X6X6X6X4XtXxXpXkXXX7X6X6X6XqX2Xu.eX6X6X6X6X6X6X6X6X6X6X6X6X6X",
"6X6X6X6X6X6X6X6X6X6X6X6X6X6X6X6X6X6X6X6X6X6X6X6X6X6X6X6X6X6X6X6X6X6X6X6X6X4XaXxXNXyXiX3XqX6X6XqX2X..eX6X6X6X6X6X6X6X6X6X6X6X6X6X",
"6X6X6X6X6X6X6X6X6X6X6X6X6X6X6X6X6X6X6X6X6X6X6X6X6X6X6X6X6X6X6X6X6X6X6X6X6X4XtXfXxXpXiX4X6X6X6XqX2XX.eX6X6X6X6X6X6X6X6X6X6X6X6X6X",
"6X6X6X6X6X6X6X6X6X6X6X6X6X6X6X6X6X6X6X6X6X6X6X6X6X6XeX4X8X8X4X6X6X4X4X6X6X6X6Xs.- U @XqX6X6X6XqX3XX.qX6X6X6X6X6X6X6X6X6X6X6X6X6X",
"6X6X6X6X6X6X6X6X6X6X6X6X6X6X6X6X6X6X6X6X6X6X6XeXeX6X5X7X;X*X7X6X6X7XyX4X6X6X6XrX:.(.eX6X6X6X6X6X4X..6X6X6X6X6X6X6X6X6X6X6X6X6X6X",
"6X6X6X6X6X6X6X6X6X6X6X6X6X6X6X6X6X6X6X6X6XeXeX3XI.5.S.J.|.|.:XP.U.l.K.0XeX6X6X6XeXeX6X6X6X6X6X6X4Xq.6X6X6X6X6X6X6X6X6X6X6X6X6X6X",
"6X6X6X6X6X6X6X6X6X6X6X6X6X6X6X6X6X6X6XqXqX#Xp.3.( / <.J.}.V.-./ ^ 2.1.H.OXqX4X6X6X6X6X6X6X6X6X6X6X:.4X6X6X6X6X6X6X6X6X6X6X6X6X6X",
"6X6X6X6X6X6X6X6X6X6X6X6X6X6X6X6X6X6XeX2Xp.^ ~ ~ I r t ) n b _ x %.[ =.{ -.oX7XeX6X6X6X6X6X6X6X6X6Xq.4X6X6X6X6X6X6X6X6X6X6X6X6X6X",
"6X6X6X6X6X6X6X6X6X6X6X6X6X6X6X6X6XeX#X3.( ^ Q _ ^ t h z z w t 3 G F C E.8.F J OXeX6X6X6X6X6X6X6XqXt.4XqX6X6X6X6X6X6X6X6X6X6X6X6X",
"6X6X6X6X6X6X6X6X6X6X6X6X6X6X6X6XeXI._ $.m.l.l z z y $ @ O @ @ @ $ 8 1 1 J A +.*..X6X6X6X6X6X6X6X6Xy.4X6X6X6X6X6X6X6X6X6X6X6X6X6X",
"6X6X6X6X6X6X6X6X6X6X6X6X6X6X6XeX$X$.@.}.|.z.l & @ + + * 4 f 4 + O . @ - ! V u &.W.7X6X6X6X6X6X6XqXf.4X6X6X6X6X6X6X6X6X6X6X6X6X6X",
"6X6X6X6X6X6X6X6X6X6X6X6X6X6XeX@XY ~ Z.K.z.v @ . @ 4 z t $ t Q f 3 . . @ 8 F C B O.$X0X4X6X6X6X6XqXf.5XqX6X6X6X6X6X6X6X6X6X6X6X6X",
"6X6X6X6X6X6X6X6X6X6X6X6X6X6X4X .u _ z.C.g O = 4 0 # # $ 0 - $ t 0 # 3 $ . 5 Y.6 x +.*X7X4X6X6X6XqXf.3XqX6X6X6X6X6X6X6X6X6X6X6X6X",
"6X6X6X6X6X6X6X6X6X6X6X6X6XeXd., i @._ f + s g y $ 8 ( F.p.G.#.- # # 0 q 4 @ 7 B S A &.0X6X6X6X6XeXy.2XqX6X6X6X6X6X6X6X6X6X6X6X6X",
"6X6X6X6X6X6X6X6X6X6X6X6XqX6XY N a ] Q % s n ~ h W 2.,XjXL.kXzX-Xt # # w v g & y Z W.A L.6X4X6X6XeXu.2XeX6X6X6X6X6X6X6X6X6X6X6X6X",
"6X6X6X6X6X6X6X6X6X6X6X6XeXs.i N F ) 4 * n D._ Q >.,XmXvXXXhXMXbX,Xy # p Q n s 3 P a H &.>X9X6X6XrXu.@XeX6X6X6X6X6X6X6X6X6X6X6X6X",
"6X6X6X6X6X6X6X6X6X6X6X6XqX=.K B ) k * g ` A.l ^ ;XMXMXbXoXhXMXvXbXoX$ l ~ ` c j t P W W..X9X6X6XrXu.@XeX6X6X6X6X6X6X6X6X6X6X6X6X",
"6X6X6X6X6X6X6X6X6X6X6XqX3X^ G W ] g g k 1.F.l 4.iXcXlXvX=XkXMXbXMXuX0 Q _ ~ n m p a } x {.9X6X6XrXy._.eX6X6X6X6X6X6X6X6X6X6X6X6X",
"6X6X6X6X6X6X6X6X6X6X6XrXh.a S F ) f m n.7.L.( p.L.L.XXP.h.$X%X=X*XXXP l ( ~ b.v w Z U | J 7X9X6XrXy._.eX6X6X6X6X6X6X6X6X6X6X6X6X",
"6X6X6X6X6X6X6X6X6X6X6XrXi.p T.G ) 4 j.m.p.L.<.L.gXlXlXgX%X+XsXsXsX*XP W 4.( m n y p F | J OX9X4XrXt._.eX6X6X6X6X6X6X6X6X6X6X6X6X",
"6X6X6X6X6X6X6X6X6X6X6XeXi.F S ) ` * l.m.4.L.<.p.cXbXbXmX*XiXMXvXnX*Xe ( I.7.j.l.j y J V.G ~.9X4XrXt.).eX6X6X6X6X6X6X6X6X6X6X6X6X",
"6X6X6X6X6X6X6X6X6X6X6XeXp.K / ] _ * l.m.i.s.1.' uXMXbXnX*XdXMXmXjX2.t <.i.5.m m f y E.T.*.[.eX4XrXt.(.rX6X6X6X6X6X6X6X6X6X6X6X6X",
"6X6X6X6X6X6X6X6X6X6XqX#XG F e.-.z 4 m m.L.$X2.#.S.dXbXmX*XhXMXzX+XQ l 2.i.3.j.n f v F H #.~.eX4XrXy.).eX6X6X6X6X6X6X6X6X6X6X6X6X",
"6X6X6X6X6X6X6X6X6X6X6XJ.M G *.Z x $ g z P.XX2.A.$.S.yXsXXXiXjX;X#.) ' <.F.S.j.m j l.b.x H [.9X4XrXg._.eX6X6X6X6X6X6X6X6X6X6X6X6X",
"6X6X6X6X6X6X6X6X6X6XqXJ.k S B ! x ; q z ' $.$._ ' h 0 ^ 2.( ~ w f $.W e h Q z c h l.'.n 6 ~.9X4XrXg.).eX6X6X6X6X6X6X6X6X6X6X6X6X",
"6X6X6X6X6X6X6X6X6X6XeX7X' F ' G x j ) n.A.G.J.S.] _ b q q q f f _ $.1.S.1.n.` n.z m '.M.Z W.wX4XeX(._.eX6X6X6X6X6X6X6X6X6X6X6X6X",
"6X6X6X6X6X6X6X6X6X6X6XrX>.a ! J j @ 4 f Q l h h f h l x x b @.%.z q z l _ f f 3 w C.<X@.H E.>X9XeX(._.eX6X6X6X6X6X6X6X6X6X6X6X6X",
"6X6X6X6X6X6X6X6X6X6X6XeXd.a P D s % c c G.<.h Q q ].-X-X].].].-XJ.z ' Q $.z g 4 l @.Z.G H 8.qX6XeX(.).eX6X6X6X6X6X6X6X6X6X6X6X6X",
"6X6X6X6X6X6X6X6X6X6X6XeX/.i U D 5 & j.m D.7.( ' 0 ].].V.V.B.%.].].h W ~ ~ ~ z 4 g p m.*.S XX6X6XeX`.).eX6X6X6X6X6X6X6X6X6X6X6X6X",
"6X6X6X6X6X6X6X6X6X6X6X9X8.2 N T.d 4 b.b.D.p.2.' w :XV.B.].B.V.].V.y l #.Q p w s g W *.E.E.!.9X6XeX(.).eX6X6X6X6X6X6X6X6X6X6X6X6X",
"6X6X6X6X6X6X6X6X6X6X6X5XZ 6 < C d * M.m.3.4.O.3.w B.B.%.%.%.B.@.z l Q <._ w q g v l +.C T.Q.9X6XeX).).eX6X6X6X6X6X6X6X6X6X6X6X6X",
"6X6X6X6X6X6X6X6X6X6X6XqX .u 6 7 q 4 M.n.<.2.( 7.( $ & w w h f f j l ~ F.#.z h k b x Z u i [.9X4XrX(.(.rX6X6X6X6X6X6X6X6X6X6X6X6X",
"6X6X6X6X6X6X6X6X6X6X6XrX+.V V u j * N.D.1.5.{ 7.-.t z n.$.$.$.n.#.Q O.7.~ l w c v a ! A i !.eX4XrXg.g.rX6X6X6X6X6X6X6X6X6X6X6X6X",
"6X6X6X6X6X6X6X6X6X6X6XeXQ.N 6 a ` * k.J.5.P.<.5.;.' A.G.n.$.1.G.$.~ <.7.y h q n k 7 F H / H.wX4XrXg.g.rX6X6X6X6X6X6X6X6X6X6X6X6X",
"6X6X6X6X6X6X6X6X6X6X6XeXQ.a 6 Z.}.* l.J.5.XXL.;.[ Q $.P.$.' 3.%XO.p 7.L.0 b w v g y R.C ! {.6X4XrXa.g.rX6X6X6X6X6X6X6X6X6X6X6X6X",
"6X6X6X6X6X6X6X6X6X6X6XeX^.S 6 c.l.= j.M.$.P.p.p.>.t _ <.( ( 3.L.O.t P.#.l w w n v 8 V i i W.wX4XrXg.g.rX6X6X6X6X6X6X6X6X6X6X6X6X",
"6X6X6X6X6X6X6X6X6X6X6XeX8.F 6 Z z = m M.@.A.-.p.T <.P.( W 2.5.7.( l G.W f h h n.z 8 B i B D ;X6XrXg.(.rX6X6X6X6X6X6X6X6X6X6X6X6X",
"6X6X6X6X6X6X6X6X6X6X4XeX$XP u 7 q & j.b.n ` ^ 2.;.4.D.#.U ( 2.p.#.5.oXb n A.` j.q $ B u S Z.|.yXeXg.).eX6X6X6X6X6X6X6X6X6X6X6X6X",
"6X6X6X6X6X6X6X6X6X6X6XeX#XI Y a q $ c N.n n ) 3.$.#.A.@.t y $.F.A.A.J.n j.f g j.3 N C u S n.J.qXqX).1XeX6X6X6X6X6X6X6X6X6X6X6X6X",
"6X6X6X6X6X6X6X6X6X6X6XeX#Xm ^ L q $ 3 ` v.n q v z h h h q $ z ) z j j j v 4 q g % 1 E.i Z { 7X4XeX_.1XeX6X6X6X6X6X6X6X6X6X6X6X6X",
"6X6X6X6X6X6X6X6X6X6X6XeX#XC.C.r q ~ ) _ @._ $.F.S.5.5.5.<.^ <.<.3.1.$.$.$.Q l Q - - J Y.a 6.5X6XeX`.1XeX6X6X6X6X6X6X6X6X6X6X6X6X",
"6X6X6X6X6X6X6X6X6X6X6XeX7Xx.x.b y $ 4 f f l l Q l t ^ ( W W 1.3.2.' Q $._ h z z f 0 E C S e.6X6XeX).3XqX6X6X6X6X6X6X6X6X6X6X6X6X",
"6X6X6X6X6X6X6X6X6X6X6X4X7Xx.x.l.8 @ k z l n.l W r 2.>.I 9 P #.^ / =.( ~ l q q & y 0 h L C 2.4X6XqX_.3XqX6X6X6X6X6X6X6X6X6X6X6X6X",
"6X6X6X6X6X6X6X6X6X6X6XeX=X|.|.z.n @ f v h A.$.#.I 5.>./ / U 4.( p.r.7.l Q ) g $ 0 h z y a E.&X9XqX).2XqX6X6X6X6X6X6X6X6X6X6X6X6X",
"6X6X6X6X6X6X6X6X6X6X6XeX#XC.C.M.K.= q g q $._ $.L Q I I ~ ^ <.^ 2.0.-.0 ) ~ l 0 0 t L L r R.&X9XeX`.2XqX6X6X6X6X6X6X6X6X6X6X6X6X",
"6X6X6X6X6X6X6X6X6X6X6XeX%Xm G l.}.q 0 y 0 0 0 y 8 e 8 0 t t t - t e r $ y - - . . 8 u 9 E +.wX4XeXg.2XeX6X6X6X6X6X6X6X6X6X6X6X6X",
"6X6X6X6X6X6X6X6X6X6X6XeX+.5 2 > G ;.;.4.;.>.w.[ 4.=.4.w.4.p.4.;.w.=.=.;.{ [ U [ Y > , 9 r i OXeXqXg.3XqX6X6X6X6X6X6X6X6X6X6X6X6X",
"6X6X6X6X6X6X6X6X6X6X6XeX .  > :   Y U I I I [ U ;.;.^ / / 6.-.=.>.;.=./ ;.[ / ;.u > , 6 , 6 &XeXeXy.2XqX6X6X6X6X6X6X6X6X6X6X6X6X",
"6X6X6X6X6X6X6X6X6X6X6XeX9.> < 9 9 =.>.;.;.,.=./ / / [ [ [ >.>.[ w.w.;.=.>.[ I I < o > < > , 5X6XeXg.3XqX6X6X6X6X6X6X6X6X6X6X6X6X",
"6X6X6X6X6X6X6X6X6X6X6XeXo.a ;.=.0.>.i.0.4.i.w.=.4.4.i.i.;.i.a.i.d.i.h.h.0.a.w.>.a.:.T 0.0.2 /.eXqX).3XqX6X6X6X6X6X6X6X6X6X6X6X6X",
"6X6X6X6X6X6X6X6X6X6X6XeX/.a ;.[ =./ >.=.=.;.;.[ ;.0.=.>.T :.,.=.:.=.;.{ T U ;.>.>.;.0.s.,.: /.eXqX1X5XqX6X6X6X6X6X6X6X6X6X6X6X6X",
"6X6X6X6X6X6X6X6X6X6X6XeX2Xr.g.0.a.i.h.0.a.h.a.d.h.h.r.a.0.a.i.>.d.>.>.d.>.>.d.i.r.i.0.s.s.Y @XeX6X4X6X6X6X6X6X6X6X6X6X6X6X6X6X6X"
};
