/* XPM */
static char *e2733bcffa9f48beb08d8fe7f7f5b493u6vTHfgQaOrcMM5w[] = {
/* columns rows colors chars-per-pixel */
"64 64 228 2 ",
"   c #040203",
".  c #090401",
"X  c #03040A",
"o  c #170402",
"O  c #120E10",
"+  c #0D1314",
"@  c #0C1B1B",
"#  c #121214",
"$  c #171719",
"%  c #131A1C",
"&  c #29140D",
"*  c #3B251B",
"=  c #0C1E20",
"-  c #111E22",
";  c #0D2223",
":  c #18282A",
">  c #1E2C32",
",  c #1B3333",
"<  c #1B3739",
"1  c #31312B",
"2  c #491908",
"3  c #541D06",
"4  c #5D2306",
"5  c #562208",
"6  c #5E2509",
"7  c #46281B",
"8  c #5B2C15",
"9  c #632406",
"0  c #6C2404",
"q  c #6F2A04",
"w  c #61240A",
"e  c #68280B",
"r  c #6C2A0B",
"t  c #722503",
"y  c #732903",
"u  c #7A2805",
"i  c #742A0A",
"p  c #7E2E0A",
"a  c #7A310B",
"s  c #6E2D13",
"d  c #712F11",
"f  c #653418",
"g  c #432C22",
"h  c #5A3524",
"j  c #734E39",
"k  c #194345",
"l  c #1F5354",
"z  c #234D4C",
"x  c #3C4E4E",
"c  c #215354",
"v  c #295351",
"b  c #2C5F60",
"n  c #316A6C",
"m  c #444C45",
"M  c #49534B",
"N  c #485B57",
"B  c #525C53",
"V  c #645446",
"C  c #745B46",
"Z  c #4D6159",
"A  c #56605A",
"S  c #5F685D",
"D  c #73665C",
"F  c #4A5F65",
"G  c #4E6D71",
"H  c #646B64",
"J  c #6B7B6C",
"K  c #78706B",
"L  c #727C6E",
"P  c #7B7674",
"I  c #812E09",
"U  c #83350F",
"Y  c #833613",
"T  c #8B3710",
"R  c #853B16",
"E  c #8A3B16",
"W  c #853B19",
"Q  c #8B3D1A",
"!  c #933F16",
"~  c #933E18",
"^  c #8D431E",
"/  c #944016",
"(  c #97441C",
")  c #8E4522",
"_  c #8E4923",
"`  c #924523",
"'  c #974825",
"]  c #9E522D",
"[  c #9C5232",
"{  c #A64B23",
"}  c #A2522E",
"|  c #AA562E",
" . c #B45829",
".. c #B75A2B",
"X. c #BB5A2C",
"o. c #A44E32",
"O. c #A55433",
"+. c #AA5633",
"@. c #A95A37",
"#. c #B45C33",
"$. c #B85C34",
"%. c #AF653F",
"&. c #B2623E",
"*. c #BD6138",
"=. c #C15B2D",
"-. c #C05A30",
";. c #CF6634",
":. c #C8653A",
">. c #C5683E",
",. c #D06633",
"<. c #D56A37",
"1. c #DE723A",
"2. c #E16F3C",
"3. c #E1703C",
"4. c #8B5C45",
"5. c #8F6243",
"6. c #AA634B",
"7. c #B26241",
"8. c #BD6745",
"9. c #B76A45",
"0. c #BB6945",
"q. c #BA6949",
"w. c #B9684A",
"e. c #BB6C51",
"r. c #B57459",
"t. c #B67B66",
"y. c #C06743",
"u. c #C36A45",
"i. c #CB6D45",
"p. c #C46B49",
"a. c #CB6D49",
"s. c #D26E45",
"d. c #D26E48",
"f. c #CC7146",
"g. c #CD714A",
"h. c #D37146",
"j. c #DD7645",
"k. c #DE7847",
"l. c #D47249",
"z. c #DB7549",
"x. c #CF7652",
"c. c #E26F41",
"v. c #E17645",
"b. c #E47846",
"n. c #ED7E45",
"m. c #EE7F49",
"M. c #F17E46",
"N. c #F27F48",
"B. c #C27E63",
"V. c #6D8076",
"C. c #778376",
"Z. c #818C7E",
"A. c #B68770",
"S. c #D78159",
"D. c #ED8149",
"F. c #F28146",
"G. c #F78449",
"H. c #FB854B",
"J. c #F68751",
"K. c #C98E6F",
"L. c #D68863",
"P. c #5F7B80",
"I. c #3A8987",
"U. c #3C9395",
"Y. c #4E8F90",
"T. c #698A8C",
"R. c #728E8B",
"E. c #658C94",
"W. c #6A8B93",
"Q. c #6B9496",
"!. c #6A9696",
"~. c #65959C",
"^. c #6C959D",
"/. c #65999C",
"(. c #6A999D",
"). c #739798",
"_. c #71949D",
"`. c #5E9CA5",
"'. c #6C95A1",
"]. c #6798A4",
"[. c #659BA4",
"{. c #6B9AA3",
"}. c #7297A2",
"|. c #49AAA6",
" X c #5EA6AA",
".X c #46B7AE",
"XX c #5CADB4",
"oX c #5CB4B9",
"OX c #68A3A7",
"+X c #64A4AB",
"@X c #62B2AE",
"#X c #67ABB4",
"$X c #61B4B7",
"%X c #63B3BA",
"&X c #59C4B8",
"*X c #5DBDC2",
"=X c #63BBC4",
"-X c #59C7CA",
";X c #5CCBD3",
":X c #54D5D2",
">X c #5AD3D4",
",X c #59D9D9",
"<X c #63C3C5",
"1X c #63C8C9",
"2X c #61CCD4",
"3X c #53E1DF",
"4X c #65E1DF",
"5X c #55DFE4",
"6X c #4DE9E9",
"7X c #54E2E3",
"8X c #57E6E6",
"9X c #54ECED",
"0X c #4DF0EF",
"qX c #56F1EE",
"wX c #56EFF1",
"eX c #5AEDF2",
"rX c #4EF4F3",
"tX c #4CF9F9",
"yX c #54F2F2",
"uX c #59F2F3",
"iX c #58F7F6",
"pX c #53FAFA",
"aX c #838585",
"sX c #8A9686",
"dX c #919E8D",
"fX c #93A08F",
"gX c #94A190",
"hX c #BCA185",
/* pixels */
"dXdXdXdXdXdXdXdXdXdXdXdXdXdXdXdXdXdXdXdXdXdXdXgXgXsX: : : : : : : : sXgXgXdXdXdXdXdXdXdXdXdXdXdXdXdXdXdXdXdXdXdXdXdXdXdXdXdXdXdX",
"dXdXdXdXdXdXdXdXdXdXdXdXdXdXdXdXdXdXdXdXdXfXC.= @ k pXeXuXyXyXyXuXpXb @ - B gXfXdXdXdXdXdXdXdXdXdXdXdXdXdXdXdXdXdXdXdXdXdXdXdXdX",
"dXdXdXdXdXdXdXdXdXdXdXdXdXdXdXdXdXdXdXfXB + b yXpXyX9X[.!.(.(.(.[.,XiXqXyXI.+ m fXdXdXdXdXdXdXdXdXdXdXdXdXdXdXdXdXdXdXdXdXdXdXdX",
"dXdXdXdXdXdXdXdXdXdXdXdXdXdXdXdXdXfXB + n rX>X(.(./. XuX[.^.^.'.7XoX{.^.{.<XyXU.+ B fXfXdXdXdXdXdXdXdXdXdXdXdXdXdXdXdXdXdXdXdXdX",
"dXdXdXdXdXdXdXdXdXdXdXdXdXdXdXdXM O I.9XrX,X[.(.^.^.+XiX{.(._.'.7X$X(.^.(.{.-XrX9X.X# 1 dXdXdXdXdXdXdXdXdXdXdXdXdXdXdXdXdXdXdXdX",
"dXdXdXdXdXdXdXdXdXdXdXdXdXdXdXM |.7X%XOX{.=X:X/._._.W.- # # # # - G _.^.^.<X1X[.OX#X,X-X% gXdXdXdXdXdXdXdXdXdXdXdXdXdXdXdXdXdXdX",
"dXdXdXdXdXdXdXdXdXdXdXdXdXdX1 |.0X-X{.'./.{.*XoX% % $ w 9 6 w 9 w $ % % I.;X[.^.'.{.oXtX:X$ fXdXdXdXdXdXdXdXdXdXdXdXdXdXdXdXdXdX",
"dXdXdXdXdXdXdXdXdXdXdXdXdXm |.oX#X:X*X^.!.G : 1 9 w 6 u q t y y y 9 6 6 1 : N _.!.@X,X+XXX-XM dXdXdXdXdXdXdXdXdXdXdXdXdXdXdXdXdX",
"dXdXdXdXdXdXdXdXdXdXdXdXm XX$X[.'.OX;XI.: * 5 6 y y p h.@.@.@.@.@.Y t t 9 5 * > n ,X#X^.'.XX&Xx dXdXdXdXdXdXdXdXdXdXdXdXdXdXdXdX",
"dXdXdXdXdXdXdXdXdXdXdXm |.$X{.(.[.^.G 1 3 9 y U +.| p H.>.q.0.0.0.R ..:.~ y 9 3 g n ^./.!.^.%X|.x dXdXdXdXdXdXdXdXdXdXdXdXdXdXdX",
"dXdXdXdXdXdXdXdXdXdXfX# 7X3X+X^._.F g 6 t Y } O.u.>.p H.8.0.0.0.0.R ,.b.:.+.Q y 9 * x }.'.[.,XpX@ sXdXdXdXdXdXdXdXdXdXdXdXdXdXdX",
"dXdXdXdXdXdXdXdXdXdXM Y.oX=X-X+XF * 6 ( ..#.q.0.u.>.p H.8.0.0.0.0.W ,.z.i.i.#.| ( 0 7 x }.;X<X-XU.Z C.dXdXdXdXdXdXdXdXdXdXdXdXdX",
"dXdXdXdXdXdXdXdXdXfX+ 0XOX(.=XG 7 w y ..n.i.0.8.a.>.p H.8.0.0.0.0.W ,.l.i.i.s.s.#.y q * x <X^.~.uX, J dXdXdXdXdXdXdXdXdXdXdXdXdX",
"dXdXdXdXdXdXdXdXdXA I.-X{.(.^.> 3 R Y ..n.i.u.u.s.8.I H.8.0.p.8.0.W ,.l.u.i.s.s.$.U { w X }.(.].<XU.N sXdXdXdXdXdXdXdXdXdXdXdXdX",
"dXdXdXdXdXdXdXdXfX@ yX_.!.^.G * 4 ] ` ..b.a.i.u.i.&.p H.8.u.d.u.8.W ,.l.0.u.s.i.#.~ 3.0 & F '.^.'.8Xk sXdXdXdXdXdXdXdXdXdXdXdXdX",
"dXdXdXdXdXdXdXsXV.n >X*X*X{.: 5 R @.` ..k.u.i.p.i.7.p H.8.h.h.u.0.W ,.l.q.u.s.i.+.~ n.Q e . }.=X=X:Xn V.sXdXdXdXdXdXdXdXdXdXdXdX",
"dXdXdXdXdXdXdXC.; uX[.,X,XY.* 6 } 0.` ..j.u.i.u.s.&.I H.8.h.h.u.0.W ,.l.0.p.a.i.+.~ F.7.e & G ,X,X+X7Xz H dXdXdXdXdXdXdXdXdXdXdX",
"dXdXdXdXdXdXdXC.; uX/.^._.% 4 Y O.0.` ..j.p.a.f.a.&.p H.8.h.h.u.0.W ,.l.8.8.i.u.} ~ N.7.E r   !.^.(.7Xz H dXdXdXdXdXdXdXdXdXdXdX",
"dXdXdXdXdXdXdXC.; uX'.(._.% 5 +.q.0.` ..j.q.u.i.0.7.p H.8.h.h.u.0.W ,.l.8.0.u.i.| ! F.q.0.e   !.^.^.7Xz H dXdXdXdXdXdXdXdXdXdXdX",
"dXdXdXdXdXdXdXC.k 8X/.^.T.$ 6 +.0.0.` ..j.q.u.i.0.7.p H.8.h.g.u.8.W ,.l.8.0.u.d.$.~ F.0.8.r o P.!.^.,Xb J dXdXdXdXdXdXdXdXdXdXdX",
"dXdXdXdXdXdXL , wX XOX+X# w a @.8.0.` ..v.0.u.i.0.7.p H.y.d.y.g.u.W ,.l.8.0.u.s.$./ N.8.0.i r . /.OX+X7Xc S dXdXdXdXdXdXdXdXdXdX",
"dXdXdXdXdXdXL < pXiXiXuX- w c.i.q.0.` ..j.q.0.0.0.7.p H.f.d.8.i.u.W ,.l.8.0.u.s.$.~ N.0.0.q.y . 4XpXuXtXc S dXdXdXdXdXdXdXdXdXdX",
"dXdXdXdXdXdXL , yX/.'./.+ w 1.f.8.0.) ..j.q.0.q.0.&.p H.h.y.8.i.u.W ;.z.0.0.u.d.$.~ G.0.0.0.y . E.[./.5Xl S dXdXdXdXdXdXdXdXdXdX",
"dXdXdXdXdXdXL , yX(.^.^.O w j.g.8.p.` ..b.0.p.p.8.7.I J.l.u.8.g.p.E :.z.9.9.8.8.@.~ J.q.q.q.y . W.(.^.7Xl S dXdXdXdXdXdXdXdXdXdX",
"dXdXdXdXdXdXL , yX(.'.).f t u i y i q t i y i i i y t u i y y i i q y u y i i i y t u i i i t 6 R.^.^.7Xc S dXdXdXdXdXdXdXdXdXdX",
"dXdXdXdXdXdXL , yX~.!.f v.m.m.M.m.m.M.m.D.m.m.m.M.m.M.m.M.m.D.m.m.m.m.M.M.M.m.D.m.m.m.m.m.M.M.D.d T.(.5Xc S dXdXdXdXdXdXdXdXdXdX",
"dXdXdXdXdXdXL , pX8X4Xf n.f.p.i.A.B.u.i.p.p.B.K.a.p.i.i.i.p.hXx.u.i.i.i.i.K.K.u.i.i.i.x.hXu.u.a.i <X9XtXl S dXdXdXdXdXdXdXdXdXdX",
"dXdXdXdXdXdXL , eX XOXr n.u.0.8.r.q.8.9.0.8.q.r.8.8.8.q.q.q.r.q.0.q.q.q.0.e.e.0.q.q.0.q.r.8.0.9.i !.#X8Xc S dXdXdXdXdXdXdXdXdXdX",
"dXdXdXdXdXdXL , wX~.^.J ' R W R W R W W W W R W R W R E E R R W W E E E R W W R R R E W W W W R K R.^.7Xl S dXdXdXdXdXdXdXdXdXdX",
"dXdXdXdXdXdXL , yX~.'.(.* 0 y y y y y y y y y y y y q y y q y y y q u q y y y y y t y y y y i & W.(.'.5Xc S dXdXdXdXdXdXdXdXdXdX",
"dXdXdXdXdXdXL < 9X(._.^.# 6 | | } } W ( $.| } } ] ' p :.| } } } | Y { | } } } } ` T *.} +.} r . E._.'.7Xl S dXdXdXdXdXdXdXdXdXdX",
"dXdXdXdXdXdXL , pX:X>X>X@ 6 3.a.0.8._ ..n.d.p.8.0.7.p H.h.8.0.q.i.E ;.l.0.0.8.8.+.! F.8.l.8.i . *X2X>X0Xc S dXdXdXdXdXdXdXdXdXdX",
"dXdXdXdXdXdXL , iX-X-X<X% w 3.f.0.8._ ..b.a.i.q.q.7.p H.h.a.q.0.i.E ;.h.0.q.q.0.+.! G.i.h.i.y . oX-X-X0Xc S dXdXdXdXdXdXdXdXdXdX",
"dXdXdXdXdXdXL , wX(.'._.# w 1.d.5.6.) ..j.u.i.q.0.&.p H.i.d.8.u.s.E ;.h.0.0.0.0.+./ G.s.i.l.y . W.(.^.5Xc S dXdXdXdXdXdXdXdXdXdX",
"dXdXdXdXdXdXL , wX(.'._.# 6 3.6.D D j ..j.u.s.u.8.&.I H.8.l.y.i.i.R ;.h.0.u.u.9.+./ G.s.8.l.t . W.^.^.5Xc S dXdXdXdXdXdXdXdXdXdX",
"dXdXdXdXdXdXL , qX^.^._.+ w 1.V aXH h ..v.8.s.a.0.&.I H.8.l.u.i.u.R ;.h.0.u.u.q.+./ G.i.8.l.y . W.^._.5Xc S dXdXdXdXdXdXdXdXdXdX",
"dXdXdXdXdXdXL , yXoX%X%X% w 1.4.P D f ..v.9.u.i.8.&.a H.8.a.s.s.u.W ,.l.0.i.i.0.+./ G.s.8.l.y .  X%XoX6Xc S dXdXdXdXdXdXdXdXdXdX",
"dXdXdXdXdXdXL , pX7X7X7X- w 2.f.V 4._ ..v.9.u.i.i.&.p H.0.0.s.s.u.W ,.l.0.i.i.0.+./ G.s.u.l.y . >X7X7XrXc S dXdXdXdXdXdXdXdXdXdX",
"dXdXdXdXdXdXL , 9X~.^.^.# w 3.i.V 4.` ..j.q.0.u.d.&.p H.8.0.f.s.u.W ,.l.0.i.i.0.+./ G.s.h.h.y . E.'.'.3Xc S dXdXdXdXdXdXdXdXdXdX",
"dXdXdXdXdXdXL , yX(.(._.+ 6 3.f.V 4.` ..j.0.8.u.i.7.p H.8.0.s.s.u.W ,.l.0.u.i.q.| / F.s.h.8.y . W.'.^.5Xc S dXdXdXdXdXdXdXdXdXdX",
"dXdXdXdXdXdXL , 9X^.!.^.+ 6 3.f.V 4.` ..j.0.8.u.i.&.p H.8.0.s.s.u.W ,.l.9.u.i.q.| ~ F.y.l.0.y . T.^.!.7Xl S dXdXdXdXdXdXdXdXdXdX",
"dXdXdXdXdXdXL , yX[.[.{.# w 3.f.V 4.` ..j.0.8.u.h.u.p H.8.0.s.s.u.W ,.l.0.i.i.q.| ~ F.8.d.u.y . ~.`.[.7Xc S dXdXdXdXdXdXdXdXdXdX",
"dXdXdXdXdXdXL < pXiXpXiX; w 1.g.V 4.` ..j.0.8.8.u.>.p H.8.0.a.s.u.W ,.l.i.s.s.a.| ~ F.8.s.l.i . 4XpXiXtXl S dXdXdXdXdXdXdXdXdXdX",
"dXdXdXdXdXdXL , eX`.'.{.# 6 1.V aXH h ..j.0.8.8.u.>.p H.8.8.s.s.y.W ,.l.i.s.h.a.| ~ F.8.h.g.q . E.'.[.,Xc S dXdXdXdXdXdXdXdXdXdX",
"dXdXdXdXdXdXL , wX!.(._.+ 6 1.j aXH h ..j.0.8.8.u.>.p H.8.0.l.s.8.W ,.l.i.h.h.a.| ~ F.8.l.u.t . T.^.'.5Xc S dXdXdXdXdXdXdXdXdXdX",
"dXdXdXdXdXdXL , eX(.'.(.# 6 3.q.V 4.) ..j.0.8.8.u.>.p H.8.0.8.u.0.R ,.l.i.i.i.a.| / F.8.g.8.y . W.^.'.3Xc S dXdXdXdXdXdXdXdXdXdX",
"dXdXdXdXdXdXL , qX/.^._.# 6 2.f.6.q.` ..j.0.8.8.u.>.I H.8.0.0.0.0.R ,.k.h.p.u.u.} ~ F.0.y.8.q . E._.^.7Xc S dXdXdXdXdXdXdXdXdXdX",
"dXdXdXdXdXdXL , pX7X6X7X% 9 3.f.8.9.` ..j.0.8.8.u.>.p H.8.0.0.0.0.W ,.b.i.8.u.i.| ! F.0.0.q.u . >X7X7XrXc S dXdXdXdXdXdXdXdXdXdX",
"dXdXdXdXdXdXL , yX$X%X%X@ 6 3.a.q.0.` ..j.9.0.0.u.>.p H.8.0.0.0.0.W ;.b.i.8.p.i.#.~ F.0.0.q.y . +X#X%X8Xc S dXdXdXdXdXdXdXdXdXdX",
"dXdXdXdXdXdXL , yX(.(._.# 6 3.i.8.y.` ..v.0.y.u.i.*.I J.8.8.8.8.8.E ;.b.s.p.u.i.$.! F.8.8.8.q . W.^.^.7Xc S dXdXdXdXdXdXdXdXdXdX",
"dXdXdXdXdXdXL , yX(.^._.g q ( ` ) ^ a E ' ) ) ` ` ^ i { ^ ) ) ) ) a ( { ' ` ) ` Q a { ) ) ) y 2 R.'.^.7Xl S dXdXdXdXdXdXdXdXdXdX",
"dXdXdXdXdXdXL , yX(._.C #.=.X.=.-.=.=.X.=.=.=.X.=.=.=.X.=.X.X.=.=.=.X.=.X.=.X.=.=.=.X.=.X.=.X.X.C R.^.5Xc S dXdXdXdXdXdXdXdXdXdX",
"dXdXdXdXdXdXL , rX-X<Xs m.v.j.z.L.S.z.z.z.j.S.L.z.z.j.j.j.j.K.z.z.j.j.j.j.L.L.z.j.j.j.x.K.z.z.j.i OX-X9Xc S dXdXdXdXdXdXdXdXdXdX",
"dXdXdXdXdXdXL , iX;X1Xf n.i.8.q.A.r.y.8.y.8.r.A.0.8.8.q.q.q.A.e.0.q.q.0.8.t.t.0.q.q.0.q.A.0.8.q.i @X;XrXl S dXdXdXdXdXdXdXdXdXdX",
"dXdXdXdXdXdXL < qX!._.j *.} [ o.[ } [ O.[ [ ] [ } [ O.} } } ] O.[ } } } [ } [ [ } } } O.] o.[ } j R.^.7Xc S dXdXdXdXdXdXdXdXdXdX",
"dXdXdXdXdXdXL , eX~.'.!.7 t t t q y q y y y y y y y y y y y y y y y y y y t t y y y y y y y y 2 T.(.^.7Xc S dXdXdXdXdXdXdXdXdXdX",
"dXdXdXdXdXdXL , eX!.!.^.# w ~ ~ E E a U ~ R E E E R i ( R E Q R R a E E R R R R Y p / R R R i . W.^.^.5Xc S dXdXdXdXdXdXdXdXdXdX",
"dXdXdXdXdXdXL , eXXX#X#X# w 3.z.s.u._ ..k.0.u.f.8.7.p J.8.y.g.u.8.E :.z.i.a.i.i.O.! D.0.0.q.y . OX#XXX7Xc S dXdXdXdXdXdXdXdXdXdX",
"dXdXdXdXdXdXL , tX8X0X8X% w 3.a.i.u._ ..v.q.u.i.8.7.I H.y.s.i.s.u.W ,.z.u.u.i.i.+.! F.0.8.q.i . ,X9X9XtXl S dXdXdXdXdXdXdXdXdXdX",
"dXdXdXdXdXdXL , wX^.^.^.+ w 3.f.i.i.` ..v.q.u.a.8.&.I H.8.l.y.s.u.W ,.l.0.i.h.p.| ~ F.0.8.q.q . W.'.'.5Xc S dXdXdXdXdXdXdXdXdXdX",
"dXdXdXdXdXdXL , qX!.^.'.+ w 3.f.a.s.' ..v.u.i.8.q.&.p G.y.h.8.g.u.W ,.l.9.p.a.q.| ~ F.0.0.q.y . T.^.!.5Xc S dXdXdXdXdXdXdXdXdXdX",
"dXdXdXdXdXdXL , wX'.(._.# w 3.f.8.a.{ ..v.u.i.0.8.&.I H.l.h.y.g.s.Q ;.l.0.0.0.q.} / F.0.8.8.y . W.'.(.5Xl S dXdXdXdXdXdXdXdXdXdX",
"dXdXdXdXdXdXL < qX}.).}.# 8 j.f.8.8.` #.D.f.0.0.q.%.a J.l.u.8.8.l.^ <.z.q.8.0.q.+.^ J.0.8.q.r . !.{.).,Xv S dXdXdXdXdXdXdXdXdXdX",
"dXdXdXdXdXdXdXC.X           3 0 0 t & 2 t t t t t 6 o t t t t t t & 3 0 0 t t 0 3 o 0 0 t e .         X Z.dXdXdXdXdXdXdXdXdXdXdX"
};
