/* XPM */
static char *f1c17afafc704525fc661de0da5ecd703GZVXQtzDfWm8cCi[] = {
/* columns rows colors chars-per-pixel */
"64 64 117 2 ",
"   c #1D1B18",
".  c #252222",
"X  c #373330",
"o  c #3F3A37",
"O  c #4D4A44",
"+  c #56564F",
"@  c #5A544E",
"#  c #5A5751",
"$  c #595D54",
"%  c #635C55",
"&  c #655F59",
"*  c #685F58",
"=  c #5F6056",
"-  c #5C6459",
";  c #5F695C",
":  c #65635A",
">  c #6B645D",
",  c #616B5F",
"<  c #6E685F",
"1  c #70675E",
"2  c #71685F",
"3  c #6A6660",
"4  c #646D61",
"5  c #6C6B62",
"6  c #736B64",
"7  c #786F66",
"8  c #756F69",
"9  c #786F6A",
"0  c #657064",
"q  c #6E7266",
"w  c #6E796B",
"e  c #737266",
"r  c #797167",
"t  c #74736A",
"y  c #7C746B",
"u  c #757A6E",
"i  c #7C796E",
"p  c #7E7671",
"a  c #7D7B73",
"s  c #80776E",
"d  c #81796F",
"f  c #807771",
"g  c #827A73",
"h  c #887F76",
"j  c #758173",
"k  c #7D8175",
"l  c #7E8578",
"z  c #7E8A7C",
"x  c #838175",
"c  c #8A8177",
"v  c #83857A",
"b  c #8D847B",
"n  c #838B7D",
"m  c #91877E",
"M  c #92897E",
"N  c #8E8780",
"B  c #858E81",
"V  c #968D83",
"C  c #998F84",
"Z  c #869182",
"A  c #899383",
"S  c #889584",
"D  c #8C9787",
"F  c #8E9C87",
"G  c #8B9789",
"H  c #8B9988",
"J  c #8D998A",
"K  c #8F9C8B",
"L  c #8E9E8B",
"P  c #8E9B8C",
"I  c #8F9D8C",
"U  c #999186",
"Y  c #9D958A",
"T  c #9A938F",
"R  c #909D8B",
"E  c #909C8C",
"W  c #919E8D",
"Q  c #A0978D",
"!  c #A1998D",
"~  c #A59D92",
"^  c #A29B97",
"/  c #A59E97",
"(  c #A09C99",
")  c #8DA08D",
"_  c #91A08D",
"`  c #93A08F",
"'  c #93A090",
"]  c #ABA296",
"[  c #ACA49A",
"{  c #B1A69B",
"}  c #B4AB9E",
"|  c #ACA7A1",
" . c #B5ACA1",
".. c #B9AFA3",
"X. c #B2ACA9",
"o. c #BBB2A5",
"O. c #BCB4A9",
"+. c #B9B3AE",
"@. c #BBB5B1",
"#. c #BDB7B4",
"$. c #C2B9AC",
"%. c #C0BBB3",
"&. c #C1BCB5",
"*. c #C9BFB3",
"=. c #CAC1B4",
"-. c #CEC5B9",
";. c #C8C2BE",
":. c #D0C7BB",
">. c #D3CABD",
",. c #C6C2C0",
"<. c #D6CEC1",
"1. c #D9CFC3",
"2. c #DCD2C5",
"3. c #DDD3C8",
"4. c #D9D3CD",
"5. c #DED8D3",
"6. c #E7E1DF",
/* pixels */
"W W W W W W W W W W W W W W W W W W W W W W K K K K R W W W W W W W W W W W W W W W W W W W W W W W W W W J K W W W W W W W W W ",
"W W W W W W W W W W W W W W W W W W W W W W K K K K R W W W W W W W W W W W W W W W W W W W W W W W W W W K W W W W W W W W W W ",
"W W W W W W W W W W W W W W W W W W W K R W W W W R W W W W W W W W W W W W W W W W W W W W W W W W W W W W W W W W W W W W W W ",
"W W W W W W W W W W W W W W W W W W W W W W W l t I W W W W W W W W W W W W S J W W W W W W W W W W W W W W W W W W W W _ _ _ _ ",
"W W W W W W W W W W W W W W W W W W W W W W W t a n I W W W W W W W W W W S q l W W W W W W W W W W W W W W W W W W W W W W W W ",
"W W W W W W W W W W W W W W W W W W W W W W I i g v I W W W W W W W W I W k b B W W W W W W W W W W W W W W W W W W W W W W W W ",
"W W W W W W W W W W W W W W W W W W W W W W S a g g Z W W W W W W W W W n g g n W W W W W W W W W W W W W W W W W W W W W W W W ",
"W W W W W W W W W W W W W W W W W W W W W W Z f f g v W W W W W W I W I i g g n K W W W W W W W W W W W W W W W W W W W W W W W ",
"W W W W W W W W W W W W W W W W W K K W W W B d f g a I W W W W W I W n f f g n W W W W W W W W W W W W W W W W W W W W _ _ _ _ ",
"W W W W W W W W W W W W W W W W W K K W W W Z f f f a I W I n K W I K k d f g n W K W W W W W W W W W W W W W W _ _ _ _ _ W W W ",
"W W W W W W W W W W W W W W W W W K K W W W W t f g k I W n v n n n W Z r y > A W K W W W W K W W W W W W W W W W W W W W W W W ",
"W W W W W W W W W W W W W W W W W K K W W W W B y g k B l x g i i 5 n n y r 5 W W W W W W W K K W W W W W W W W W W W W W W W W ",
"W W W W W W W W W W W W W W W W W K K W W W W G 8 g y f g g g g g g g y f i B W W W W W W W K W W W W W W W W W W W W W W W W W ",
"W W W W W W W W W W W W W W W W W K K W W W I u f f g g g g g g g g g g g g t J W W W W W W I W W W W W W W W W W W W W W W W W ",
"W W W W W W W W W W W W W W W W W W K W W W k f f f f f f g g f f g g g g g g a W W W W W W W W W W W W W W W W W W W W W W W W ",
"W W W W W W W W W W W W W W W W W W W W _ Z d g g b f f f g f f f f g g g V f g B I W W W W W W W W W W W W W W W W W W W W W W ",
"W W W W W W W W W W W W W W W W W W W W I a g c 5.,.T g f f f r f f f f &.#.@.g a I I W W W W W W W W W W W W W W W W W W W W W ",
"W W W W W W W W W W W W W W W W W W K W Z a g / ( . +.f f 8 X . o y g y X.  6.y g D K H S I W W W W W W W W W W W W W W _ ' ' _ ",
"W W W W W W W W W W W W W W W W z q l P a g g N 4.%.N f f f f f g g g g ^ ;.| f f e ; w I I I W W W W W W W W W ' _ _ _ _ _ _ ' ",
"W W W W W W W W W W W W W W W W I J j ; O @ r f f f g f f f f f f g f g g g g 5 @ & 4 - 4 j W W W W W W W W W W W W W W W W W _ ",
"W W W W W W W W W W W W W W W J w , , $ % > g g g g g f r d 7 6 r 8 y g g a a p @ % k I W W W W W W W W W W W W W W W W _ _ ' ' ",
"W W W W W W W W W W W W W W W W W Z 0 + % > g g f g g f f y g f f f f g g g g g > @ + , 4 j W W W W W W W W W W W W W W W W W W ",
"W W W W W W W W W W W W W W W W j u S r g g g g g f f f g g g f f f g g g g g g g g i S I W W W W W W W W W W W W W W W W W W W ",
"W W W W W W W W W W W W W W W W W W i f f g g f f f f y U Q b [  .~ V f g g f g g g g x W I I W W W W W W W W W W W W W W W W W ",
"W W W W W W W W W W W W W W W W W B f f f g f f g m o.-.2.<.2.3.2.2.2.>.$.U y f g g g f B I I W W W W W W W W W W W W W W W W W ",
"W W W W W W W W W W W W W W W W W g f f f g f C >.2.2.2.2.2.3.3.2.2.2.2.3.3.=.b g g f g a I W W W W W W W W W W W _ W W W W W W ",
"W W W W W W W W W W W W W W W W v g g g g f V 2.2.2.2.*.2.3.3.3.3.2.2.1.3.3.2.2.Y g g g f n W W W W W W W W W W ' _ W W W W W W ",
"W W W W W W W W W W W W W W W J r g g g f Y 2.2.2.2.~ g c >.3.3.2.2.O.g C 2.2.1.>.b f g g i W W W W W W W W W W W _ W W W W W W ",
"W W W W W W W W W W W W W W W A f g g f V <.c b :.>.} 3.:.=.2.2.2.2.*.<.$.O.=.y c =.g f g a A W W W W W W W W _ W _ W W _ _ _ _ ",
"W W W W W W W W W W W W W W W a g g f g >.Y *.$.o.2.2.3.2.3.2.2.2.2.2.2.2.3.<.-.*.~  .f y g v W W W W W I I I ) I I _ W W W W W ",
"W W W W W W W W W W W W W W B f g f g [ 3.2.2.2.3.2.2.3.2.2.2.2.2.2.2.2.2.2.2.2.2.2.2.b y t a W W W W W W W _ _ W W W W W W W W ",
"W W W W W W W W W W W W W W v f f y b 1.2.2.2.2.2.3.3.3.2.3.=.[ 2.2.2.2.=.*.2.2.2.2.2. .f 3 g B W W W W W W W W W W W W W W W W ",
"W W W W W W W W W W W W W J a f r g } 3.*.$.2.2.=.h  .2.2. .i c b 1.2...y y *.2.O.c :.<.f > g g P W W W W W W W W W _ _ W W W W ",
"W W W W W W W W W W W W W v f f r f >.$.h b  .>.d Q g o.2.} 2.3.o.:.2.$.>.-.[ 2.U ~ V 3.! 8 p g S W W W W W W W W W W W W W W W ",
"W W W W W W W W W W W I G y f f y Y 2.] <.2.>.2.2.2.2.2.2.2.2.3.3.3.3.3.3.3.3.2.2.2.=.2.O.y 8 g a W W W W W W W W W W W W W W W ",
"I I I I I I I I W W W I k f d y d $.2.2.2.3.3.2.2.2.2.2.2.2.2.2.3.3.3.2.3.3.3.3.3.2.3.2.>.r 8 g g W W W W W W W W W W W W W W R ",
"K I I I I I I I I W W W v f d r y <.2.2.2.2.2.3.2.2.2.2.2.2.2.2.2.2.2.2.2.2.3.2.3.2.2.2.>.b t g a Z I W W W W W W W W W W W W I ",
"K I I I I I I I I W W W l f y 6 c 2.2.2.2.2.2.2.2.2.2.2.2.2.2.2.2.2.2.2.2.2.3.3.2.3.3.3.>.V 6 g g S W W W W W W W W W _ W W W W ",
"W W W W W W W W W W W W k y 6 6 V 2.2.2.2.2.2.2.2.2.2.2.2.2.2.2.2.2.2.2.2.2.2.2.2.3.2.2.3.U t 8 p Z W W W W W W W W W W W W W W ",
"W W W W W W W W W W W W n > * y ~ 2.2.2.2.2.2.2.2.2.2.2.2.2.2.2.2.2.2.2.2.2.2.2.2.2.2.2.3.[ y & > J W W W W W W W W W W W W W W ",
"W W W W W W _ _ W W W W I = # a  .2.2.2.2.2.2.2.2.2.2.2.2.2.2.2.2.2.2.2.2.2.2.2.2.2.2.2.2.[ p : u W W W W W _ W W W W W _ _ _ _ ",
"I I W W W W _ _ W W W W W W B f o.2.2.2.2.2.2.2.2.2.2.2.2.2.2.2.2.2.2.2.2.2.2.2.2.2.2.2.2.[ a S W W W W W W W W W W W W _ _ _ _ ",
") I I I I I _ _ W W W _ _ ' A f $.2.2.2.2.2.2.2.2.1.2.2.2.2.2.2.2.2.2.2.2.2.2.2.2.2.2.2.2. .f B W W W W W W W W W W W W W W W W ",
") ) ) ) ) ) ) I I I W W W W v f $.2.2.1.2.2.2.2.2.1.2.2.2.2.2.2.2.2.2.2.2.2.2.2.2.2.2.2.2.{ f n ) W W W W W W W W W W W W W W W ",
"I I I I I I I I I I W I W W a f *.2.2.1.1.1.2.2.2.2.2.2.2.2.2.2.2.2.2.2.2.2.2.2.2.2.2.2.2.] f n I W W W W W W W W W W W W W W W ",
"I I I I I I I I I W W W W _ a a O.2.2.2.2.2.2.2.2.2.2.2.2.2.2.2.2.2.2.2.2.2.2.2.2.2.2.2.2.Y f n W W W W W W W W W W W W W W W W ",
"I ) I I I I W W W W W W W _ a f } 2.2.2.2.2.2.2.2.2.2.2.2.2.2.2.2.2.2.2.2.2.2.2.2.2.2.2.2.b f n I W W W W W W W W W W W W W W W ",
") I I I I I W W W W W W W ' a i Y 2.2.2.2.2.2.2.1.2.2.2.2.2.2.2.2.2.2.2.2.2.2.2.2.2.2.2.>.d f v I W W W W W W W W W W W W W W W ",
"I W W W W W W W W W W W W W a y g 2.2.2.2.2.2.2.2.2.2.2.2.2.2.2.2.2.2.2.2.2.2.3.2.2.2.2. .y r J W W I K I I W W W W W W W W W W ",
"W W W W W W W W W W W W W W k p y  .2.2.2.2.2.2.2.2.2.2.2.2.2.2.2.2.2.2.2.3.3.2.2.2.2.<.V s e W W W I K I I W I I I I W W W W W ",
"W W W I I I W W W W W W W W n y y y -.2.1.2.2.2.2.2.2.2.2.2.2.2.2.2.2.2.2.2.2.2.2.2.2. .s y k W W I I K K K K I I I I W W W W W ",
"K W W W W K F K K J K W W W K 6 y y V 1.1.2.2.2.2.1.2.2.2.2.2.2.2.2.2.2.2.2.2.2.2.3.=.M s y Z W W W K K K K K K K K K I W W I W ",
"K K R W W W R F F J J K W W W k 8 9 9 / 1.2.2.2.2.2.2.2.2.2.2.2.2.2.2.2.2.2.2.2.2.2.m s y x W W W R W W K K K J W W W W W W W W ",
"R R R R R W W W W W W K W W W J 5 6 8 8 ~ 1.2.2.2.2.2.2.2.2.2.2.2.2.2.2.2.2.2.2.2.U r y r D W W W W K K K K K K W W W W W W W W ",
"K R R R R K K W W W W K W W W W B 5 6 6 6 m <.2.2.2.2.2.2.2.2.2.2.2.2.2.2.2.2.>.b 6 6 8 k W W W W W W K K K K K K W W W W W W W ",
"K K R R R K K W W W K K W W W W W l > 6 6 6 r o.1.1.2.2.2.2.>.o.1.2.2.2.2.2.$.y 6 2 6 i W W W W W W W K J K K K K K W K K W W W ",
"K K K W W W W W W W K K W W W W W W l > 6 6 6 1 s C o.$.$.$.} { $.=.=.$.Q y 1 1 1 < l W W W W W W W W W J K K K K W W W W W W W ",
"J K K K K W W W W W W K W W W W W W W v % % & > 2 2 6 y g c M M C b y > > > & & * : R W W W W W W W W W J K K K K K W W W W W W ",
"J W K K K W W K K W W K W W W W W W W S t q : : u u a a a u t 5 5 e q e e : : : > 5 J R W W W W W W W W J K K K K K W W W W W W ",
"J K K K W W W R W W W W W W W W W W W W W W W W K W R W W W I K W W K W W W W W W W W R W W W W W W W W J W W W K R W W W W W W ",
"W W W W W W W W W W W W W W W W W W W W W W W K W W W W W W W W W W W W W W R R W W W W W W W W W W W W W W W W W W W W W W W W ",
"W W W W W W W W W W W W W W W W W W W W W W W W W W W W W W W R W W W W W W W W W W I I W W W W W W W W K W W W W W W W W W W W ",
"W W W W W W W W W W W W W K W W W W W W W W W W W W W W W W W W W W W W W W W W W W W W W W W W W W W W I W W W W W W W W W W W ",
"W W W W W W W W W W W W W K W W W W W W W W W W W W W W W W W W W W W W W W W W W W W W W W W W W W W W W W W W W W W W W W W W "
};
